<?xml version="1.0" encoding="UTF-8"?>
<svg version="1.1" xmlns="http://www.w3.org/2000/svg" width="300" height="244">
<path d="M0 0 C99 0 198 0 300 0 C300 80.52 300 161.04 300 244 C201 244 102 244 0 244 C0 163.48 0 82.96 0 0 Z " fill="#020000" transform="translate(0,0)"/>
<path d="M0 0 C0 0.66 0 1.32 0 2 C-8.35787396 5.79536306 -16.75246092 9.32135836 -25.4921875 12.140625 C-29.80844476 13.61971627 -34.03660248 15.33030204 -38.27734375 17.01171875 C-41 18 -41 18 -43 18 C-43 18.66 -43 19.32 -43 20 C-44.36125 20.4640625 -44.36125 20.4640625 -45.75 20.9375 C-65.17006353 29.3109282 -78.0128294 48.22846404 -86 67 C-92.61861886 85.99156958 -93.4446411 111.51584612 -85 130 C-84.55793213 131.00740234 -84.55793213 131.00740234 -84.10693359 132.03515625 C-80.13818753 141.00043597 -75.50458341 148.60718567 -69 156 C-68.08347656 157.21816406 -68.08347656 157.21816406 -67.1484375 158.4609375 C-64.67712419 161.3815805 -61.91716948 163.65274125 -58.875 165.9375 C-58.29878906 166.37280029 -57.72257812 166.80810059 -57.12890625 167.2565918 C-46.93626962 174.85728162 -36.43152553 180.00194898 -24.125 183.375 C-18.26062396 185.04090649 -12.8909618 187.7372209 -7.41796875 190.37890625 C-4.63861531 191.69711388 -1.87093053 192.90084374 1 194 C1 194.33 1 194.66 1 195 C-25.65578833 196.02085998 -50.18563641 187.02976221 -69.8671875 169.0546875 C-76.67894037 162.56474973 -82.38387357 155.18990174 -87 147 C-87 146.34 -87 145.68 -87 145 C-87.66 145 -88.32 145 -89 145 C-89.33773437 144.18015625 -89.67546875 143.3603125 -90.0234375 142.515625 C-90.46945313 141.43796875 -90.91546875 140.3603125 -91.375 139.25 C-91.81585938 138.18265625 -92.25671875 137.1153125 -92.7109375 136.015625 C-93.8857046 133.14676548 -93.8857046 133.14676548 -95.03125 131.0703125 C-100.21064783 120.00143811 -100.40655432 107.35243572 -100.4375 95.375 C-100.4473291 94.08287598 -100.4571582 92.79075195 -100.46728516 91.45947266 C-100.40502418 84.53226277 -99.83146849 79.31360272 -97 73 C-96.57148219 71.15311328 -96.17285586 69.29888704 -95.8125 67.4375 C-90.53798371 45.68012032 -73.28569333 26.79403317 -54.97265625 14.7890625 C-51.07108959 12.44094485 -47.25716188 10.59805317 -43 9 C-41.74704318 8.50218877 -40.49447449 8.0034001 -39.2421875 7.50390625 C-26.37824162 2.44602624 -13.89930186 -0.30215874 0 0 Z " fill="#9E1124" transform="translate(141,31)"/>
<path d="M0 0 C1.10730469 0.50402344 2.21460938 1.00804687 3.35546875 1.52734375 C11.05572296 5.11677161 17.61810633 9.35650725 24 15 C25.24716797 16.04994141 25.24716797 16.04994141 26.51953125 17.12109375 C42.58525286 30.96574785 52.10718148 47.58584541 57 68 C57.24492187 68.93972656 57.48984375 69.87945312 57.7421875 70.84765625 C63.03354382 94.29633802 56.79343129 120.41935381 44.24609375 140.55078125 C43.50268174 141.70394571 42.75599311 142.85504406 42 144 C40.84686623 140.54059868 41.50945566 138.99614873 42.4609375 135.58984375 C43.38158972 131.16671024 43.459533 126.67669421 43.65625 122.171875 C43.98860951 119.10510316 44.58032657 117.65282042 46 115 C52.19445556 92.83635166 50.68983484 69.42681532 40 49 C39.48566406 48.01257812 38.97132813 47.02515625 38.44140625 46.0078125 C30.16696053 30.98768702 16.77400564 18.056792 1 11 C1 10.34 1 9.68 1 9 C0.27296875 8.81824219 -0.4540625 8.63648437 -1.203125 8.44921875 C-2.20859375 8.19785156 -3.2140625 7.94648438 -4.25 7.6875 C-5.33925781 7.41550781 -6.42851562 7.14351562 -7.55078125 6.86328125 C-9.79879526 6.30064128 -12.04622296 5.73565185 -14.29296875 5.16796875 C-15.33066406 4.90628906 -16.36835938 4.64460937 -17.4375 4.375 C-18.85869141 4.01535156 -18.85869141 4.01535156 -20.30859375 3.6484375 C-21.19675781 3.43445312 -22.08492188 3.22046875 -23 3 C-23.78375 2.80921875 -24.5675 2.6184375 -25.375 2.421875 C-43.20451619 -0.44358296 -62.54041703 2.48946329 -78.1015625 11.37890625 C-81 13 -81 13 -84.6875 14.4375 C-88.8981057 16.42363477 -92.12570388 19.16457163 -95.66796875 22.16015625 C-97.73144836 23.7881276 -99.60876995 24.93906345 -102 26 C-102 26.66 -102 27.32 -102 28 C-102.94875 28.350625 -103.8975 28.70125 -104.875 29.0625 C-109.28949712 30.9312135 -112.99928875 33.6717655 -116.86328125 36.4765625 C-119 38 -119 38 -121 39 C-116.0955024 23.30560768 -98.65000866 10.74590656 -85 3 C-84.29746094 2.58492187 -83.59492187 2.16984375 -82.87109375 1.7421875 C-58.51900792 -11.61727211 -24.92019881 -12.0427755 0 0 Z " fill="#9D1124" transform="translate(195,11)"/>
<path d="M0 0 C9.82424656 8.48325148 13.07492886 26.59015232 14 39 C14.72065585 52.90427128 14.47381172 65.73991544 10 79 C9.63777344 80.1240625 9.27554688 81.248125 8.90234375 82.40625 C4.41918078 95.1718666 -3.08336028 105.9292562 -12 116 C-12.62390625 116.70769531 -13.2478125 117.41539062 -13.890625 118.14453125 C-30.79421268 136.14898284 -55.45674679 145.74896855 -79.65625 147.22265625 C-106.46665514 147.88145894 -130.83594528 138.40218626 -150.62109375 120.3984375 C-157.4826233 113.76926655 -164.95994878 105.17317781 -168 96 C-166.96875 96.804375 -165.9375 97.60875 -164.875 98.4375 C-161.61053888 100.9047576 -158.25437954 103.12386719 -154.78564453 105.28540039 C-145.78738385 110.89475206 -145.78738385 110.89475206 -142.5 114.5 C-131.86194534 126.02010442 -114.98722685 132.93643451 -100 136 C-99.22696533 136.17128418 -98.45393066 136.34256836 -97.6574707 136.51904297 C-75.89695546 140.45732639 -53.3462638 135.04295195 -34.875 123.3125 C-24.49898612 116.0354556 -15.86653078 107.72268273 -9 97 C-8.31035156 95.95328125 -7.62070313 94.9065625 -6.91015625 93.828125 C4.21860234 75.83974054 7.30391959 54.35098409 3.54370117 33.46557617 C3.19571212 32.01163194 2.83693562 30.56021191 2.46557617 29.11206055 C1.61734327 25.26409893 1.56807885 21.36442004 1.4375 17.4375 C1.21476804 11.56590638 0.80707739 5.82296334 0 0 Z " fill="#9E1124" transform="translate(256,79)"/>
<path d="M0 0 C0.33 0 0.66 0 1 0 C0.97905273 1.11334717 0.95810547 2.22669434 0.93652344 3.3737793 C0.86328167 7.56521375 0.81789926 11.75659358 0.78027344 15.94848633 C0.76034732 17.75131795 0.73319616 19.55408658 0.69824219 21.35668945 C0.4265337 35.745252 2.09189339 47.65430411 9.0625 60.5 C9.44535156 61.21212646 9.82820313 61.92425293 10.22265625 62.65795898 C22.53444792 84.69932159 43.1401135 98.75468666 67.06884766 105.59106445 C73.25383944 107.14942762 79.26743371 107.34798032 85.625 107.3125 C86.68388428 107.30686035 87.74276855 107.3012207 88.83374023 107.29541016 C106.42770915 107.0243828 122.3428833 102.45998169 136.828125 92.3203125 C139 91 139 91 142 91 C140.03845822 93.73545033 138.06541967 96.46075376 136.0703125 99.171875 C134.93336967 100.7249818 133.80833494 102.28809283 132.7421875 103.890625 C126.87924615 112.14217209 114.6419863 114.47507823 105.21484375 116.26953125 C84.87089823 119.51082356 64.49781266 117.13183157 46 108 C45.38801758 107.6999707 44.77603516 107.39994141 44.14550781 107.09082031 C21.94464494 96.00680154 6.84693766 77.5511052 -3.875 55.375 C-5.35053956 50.94838133 -5.72925895 46.63994148 -6 42 C-6.66 42 -7.32 42 -8 42 C-8.78057495 37.67896011 -9.42887431 33.35366305 -10 29 C-10.13664062 28.00742188 -10.27328125 27.01484375 -10.4140625 25.9921875 C-11.10549481 16.59382975 -6.90058501 9.69529614 -2 2 C-1.34 1.34 -0.68 0.68 0 0 Z " fill="#9F1124" transform="translate(69,80)"/>
<path d="M0 0 C18.89709972 -0.44815256 18.89709972 -0.44815256 24 2 C25.69929513 3.63338655 27.3609952 5.30612314 29 7 C30.07770505 7.93475436 31.16824708 8.85486315 32.26953125 9.76171875 C52.25497436 26.22855847 64.7534283 47.88218256 67.79931641 73.86181641 C70.31462599 100.66118542 63.29383544 125.42913749 46.30029297 146.45068359 C39.31370003 154.77530221 29.09748484 165.93464962 18.10546875 168.73828125 C14.43807248 169.04735741 10.80165362 169.10881444 7.125 169.0625 C6.43664062 169.05798828 5.74828125 169.05347656 5.0390625 169.04882812 C3.35933665 169.03716336 1.67965625 169.01923271 0 169 C1.44857561 166.10284878 3.30592349 165.99028 6.3125 164.875 C28.56101866 155.81761489 43.81285682 137.74414968 53 116 C54.59620934 111.7427203 55.86131696 107.40033447 57 103 C57.1750708 102.39414063 57.3501416 101.78828125 57.53051758 101.1640625 C62.34689015 78.96316469 56.16203447 54.47345995 44.1875 35.6875 C37.39634179 26.08081363 30.32553119 18.64808627 20.2734375 12.55859375 C19.52320313 12.04425781 18.77296875 11.52992187 18 11 C18 10.34 18 9.68 18 9 C17.278125 8.896875 16.55625 8.79375 15.8125 8.6875 C12.70972195 7.92904314 10.72730661 6.64906911 8 5 C5.35911011 3.91112562 2.69268442 2.9584131 0 2 C0 1.34 0 0.68 0 0 Z " fill="#9E1124" transform="translate(167,44)"/>
<path d="M0 0 C1.37232175 0.16919035 2.74784296 0.31368221 4.125 0.4375 C8.16004282 1.02323202 8.95811053 1.60335982 12 4 C13.39289812 4.34539344 14.78924955 4.67695593 16.1875 5 C25.04895611 7.75916838 30.7548863 18.21729154 35 26 C34.67 26.66 34.34 27.32 34 28 C33.030625 27.113125 32.06125 26.22625 31.0625 25.3125 C27.05481531 21.85505071 22.69438427 19.40573888 18 17 C18 16.34 18 15.68 18 15 C12.52225234 13.41678933 12.52225234 13.41678933 7 12 C7 11.34 7 10.68 7 10 C6.04738281 9.86722656 5.09476562 9.73445313 4.11328125 9.59765625 C2.85902344 9.42105469 1.60476562 9.24445312 0.3125 9.0625 C-1.54955078 8.80146484 -1.54955078 8.80146484 -3.44921875 8.53515625 C-5.44795602 8.23391642 -7.44442116 7.90480531 -9.42089844 7.48144531 C-21.14250647 5.29335264 -34.26913663 6.42217322 -45.875 8.75 C-46.66334229 8.90686279 -47.45168457 9.06372559 -48.26391602 9.2253418 C-53.20415466 10.32311411 -57.5974686 12.01154485 -62.15673828 14.20410156 C-64 15 -64 15 -66 15 C-66 15.66 -66 16.32 -66 17 C-66.69609375 17.23589844 -67.3921875 17.47179687 -68.109375 17.71484375 C-86.05022772 25.69124989 -99.24781337 43.92944449 -106.4375 61.625 C-112.30935757 77.17889829 -112.37762457 91.55880725 -112 108 C-118.25719936 102.01513138 -121.24302676 93.83694218 -121.5625 85.1875 C-120.35084595 59.70910794 -106.05089892 36.2488682 -87.62646484 19.39746094 C-83.07460523 15.4864966 -78.06563141 12.20256697 -73 9 C-72.13246094 8.42378906 -71.26492187 7.84757812 -70.37109375 7.25390625 C-68 6 -68 6 -64 6 C-64 5.34 -64 4.68 -64 4 C-43.48044686 -1.73383258 -20.8926398 -7.42849415 0 0 Z " fill="#9C1124" transform="translate(197,35)"/>
<path d="M0 0 C2.375 -0.125 2.375 -0.125 5 0 C7 2 7 2 7.22705078 4.06298828 C7.21134033 5.30411377 7.21134033 5.30411377 7.1953125 6.5703125 C7.18564453 7.91416016 7.18564453 7.91416016 7.17578125 9.28515625 C7.15902344 10.22230469 7.14226562 11.15945312 7.125 12.125 C7.11597656 13.06988281 7.10695312 14.01476562 7.09765625 14.98828125 C7.07404522 17.32577292 7.04111516 19.66276123 7 22 C12.21125556 17.62121896 17.11856252 12.99052246 21.9375 8.1875 C22.51717529 7.61233643 23.09685059 7.03717285 23.6940918 6.44458008 C26.71636222 3.50283852 26.71636222 3.50283852 29 0 C31.375 -0.125 31.375 -0.125 34 0 C34.66 0.66 35.32 1.32 36 2 C35.72212252 6.01410367 34.55086222 7.92220185 31.65625 10.62890625 C30.98722656 11.27150391 30.31820312 11.91410156 29.62890625 12.57617188 C28.92636719 13.23166016 28.22382813 13.88714844 27.5 14.5625 C26.10780629 15.8691185 24.72208167 17.18267309 23.34375 18.50390625 C22.72693359 19.07955322 22.11011719 19.6552002 21.47460938 20.24829102 C19.85531585 22.17187231 19.40130292 23.54336626 19 26 C19.59329102 26.27094482 20.18658203 26.54188965 20.79785156 26.82104492 C24.33851915 28.71659745 26.91431006 31.50485534 29.75 34.3125 C30.35199219 34.88162109 30.95398438 35.45074219 31.57421875 36.03710938 C35.88854265 40.29762651 35.88854265 40.29762651 36.453125 43.85546875 C36 46 36 46 35 47 C32.41015625 47.53515625 32.41015625 47.53515625 29 47 C26.16472702 44.77429928 23.83316503 42.12150987 21.4375 39.4375 C20.15921514 38.00627976 18.86674864 36.58756467 17.55859375 35.18359375 C16.99454834 34.54993896 16.43050293 33.91628418 15.84936523 33.26342773 C14.00562152 31.72472873 14.00562152 31.72472873 11.34008789 32.17602539 C8.83339352 32.75394256 8.83339352 32.75394256 8 35 C7.68744353 37.85207778 7.48962518 40.70496854 7.28125 43.56640625 C7 46 7 46 6 47 C3 47.125 3 47.125 0 47 C-1.54258608 45.45741392 -1.12718571 44.02636265 -1.12939453 41.87915039 C-1.13254669 41.00476822 -1.13569885 40.13038605 -1.13894653 39.22950745 C-1.13591019 37.8029911 -1.13591019 37.8029911 -1.1328125 36.34765625 C-1.13376923 35.37718857 -1.13472595 34.40672089 -1.13571167 33.40684509 C-1.13639365 31.34976131 -1.13453814 29.29267538 -1.13037109 27.2355957 C-1.12502884 24.07954078 -1.13031253 20.92362855 -1.13671875 17.76757812 C-1.13605786 15.77343718 -1.13477647 13.77929633 -1.1328125 11.78515625 C-1.13483673 10.83616959 -1.13686096 9.88718292 -1.13894653 8.90943909 C-1.13421829 7.59313759 -1.13421829 7.59313759 -1.12939453 6.25024414 C-1.12859894 5.4760463 -1.12780334 4.70184845 -1.12698364 3.90419006 C-1 2 -1 2 0 0 Z " fill="#AE1327" transform="translate(138,88)"/>
<path d="M0 0 C2.68125418 2.38246339 4.11423459 4.8545504 5.6875 8.0625 C6.12449219 8.94035156 6.56148438 9.81820312 7.01171875 10.72265625 C8 13 8 13 8 15 C6.68 14.67 5.36 14.34 4 14 C3.67 18.29 3.34 22.58 3 27 C2.67 27 2.34 27 2 27 C1.93941406 25.72125 1.87882812 24.4425 1.81640625 23.125 C1.73192784 21.4166589 1.64728359 19.70832599 1.5625 18 C1.52318359 17.16082031 1.48386719 16.32164063 1.44335938 15.45703125 C1.18148668 10.25986542 0.7100648 5.15542847 0 0 Z " fill="#8A0E1F" transform="translate(256,79)"/>
<path d="M0 0 C0.33 0 0.66 0 1 0 C0.67 10.89 0.34 21.78 0 33 C-0.33 33 -0.66 33 -1 33 C-1.33 24.75 -1.66 16.5 -2 8 C-2.99 8.33 -3.98 8.66 -5 9 C-3.75471468 5.55151758 -2.38532951 2.80016942 0 0 Z " fill="#680B17" transform="translate(69,80)"/>
<path d="M0 0 C0.66 0.33 1.32 0.66 2 1 C-0.61691164 3.67470955 -3.24481708 6.33834481 -5.875 9 C-6.62136719 9.763125 -7.36773437 10.52625 -8.13671875 11.3125 C-8.85214844 12.034375 -9.56757812 12.75625 -10.3046875 13.5 C-11.2944458 14.50546875 -11.2944458 14.50546875 -12.30419922 15.53125 C-14 17 -14 17 -16 17 C-16 17.66 -16 18.32 -16 19 C-16.66 18.67 -17.32 18.34 -18 18 C-12.54533282 11.33525307 -6.4424306 5.68518288 0 0 Z " fill="#220307" transform="translate(120,57)"/>
<path d="M0 0 C16.30926153 -0.38678091 16.30926153 -0.38678091 24 2 C24.33 2.66 24.66 3.32 25 4 C24.14792969 3.83628906 23.29585937 3.67257813 22.41796875 3.50390625 C18.9868923 2.99806755 15.77735612 2.90128199 12.3125 2.9375 C10.63607422 2.95103516 10.63607422 2.95103516 8.92578125 2.96484375 C7.96027344 2.97644531 6.99476563 2.98804688 6 3 C3 3 3 3 0 2 C0 1.34 0 0.68 0 0 Z " fill="#5D0A15" transform="translate(167,44)"/>
<path d="M0 0 C1.65 0 3.3 0 5 0 C4.14285714 8.57142857 4.14285714 8.57142857 2 12 C1.67 10.68 1.34 9.36 1 8 C0.34 8 -0.32 8 -1 8 C-0.67 5.36 -0.34 2.72 0 0 Z " fill="#1D0306" transform="translate(234,140)"/>
<path d="M0 0 C2.30874711 2.16614803 4.05290181 4.39206608 5.75 7.0625 C6.19859375 7.75472656 6.6471875 8.44695313 7.109375 9.16015625 C7.40328125 9.76730469 7.6971875 10.37445313 8 11 C7.67 11.66 7.34 12.32 7 13 C5.87411986 12.04270084 4.7493285 11.08412105 3.625 10.125 C2.99851563 9.59132813 2.37203125 9.05765625 1.7265625 8.5078125 C0.44163349 7.38567993 -0.79371975 6.20628025 -2 5 C-1.34 3.35 -0.68 1.7 0 0 Z " fill="#920F21" transform="translate(224,50)"/>
<path d="M0 0 C-1.58561638 3.85593074 -4.06509954 6.33216291 -7 9.25 C-7.886875 10.14203125 -8.77375 11.0340625 -9.6875 11.953125 C-12 14 -12 14 -14 14 C-12.41438362 10.14406926 -9.93490046 7.66783709 -7 4.75 C-6.113125 3.85796875 -5.22625 2.9659375 -4.3125 2.046875 C-2 0 -2 0 0 0 Z " fill="#1E0306" transform="translate(83,60)"/>
<path d="M0 0 C0 0.66 0 1.32 0 2 C-1.45381897 2.69699552 -2.91322953 3.38233866 -4.375 4.0625 C-5.59316406 4.63677734 -5.59316406 4.63677734 -6.8359375 5.22265625 C-7.55007812 5.47917969 -8.26421875 5.73570313 -9 6 C-9.66 5.67 -10.32 5.34 -11 5 C-9.68 4.34 -8.36 3.68 -7 3 C-10.3 2.67 -13.6 2.34 -17 2 C-17 1.67 -17 1.34 -17 1 C-11.30494264 0.3583034 -5.73266804 -0.12462322 0 0 Z " fill="#580914" transform="translate(141,31)"/>
<path d="M0 0 C-1.31860889 4.61513112 -3.21355437 8.09897612 -6 12 C-7.0516399 8.84508031 -6.98032423 7.96644412 -6.1875 4.875 C-6.01605469 4.17117187 -5.84460938 3.46734375 -5.66796875 2.7421875 C-4.52460226 -0.23992628 -3.05322495 0 0 0 Z " fill="#8F0F21" transform="translate(243,143)"/>
<path d="M0 0 C0.66 0.33 1.32 0.66 2 1 C0.02 3.97 -1.96 6.94 -4 10 C-4.33 9.01 -4.66 8.02 -5 7 C-5.66 6.34 -6.32 5.68 -7 5 C-4.69 3.35 -2.38 1.7 0 0 Z " fill="#900F20" transform="translate(209,170)"/>
<path d="M0 0 C0.33 0.99 0.66 1.98 1 3 C-1.64 5.97 -4.28 8.94 -7 12 C-7 8.19654123 -5.86213669 7.22298985 -3.5 4.3125 C-2.8503125 3.50425781 -2.200625 2.69601563 -1.53125 1.86328125 C-1.0259375 1.24839844 -0.520625 0.63351563 0 0 Z " fill="#870E1F" transform="translate(100,64)"/>
<path d="M0 0 C1.32 0.33 2.64 0.66 4 1 C3.195625 1.495 2.39125 1.99 1.5625 2.5 C-1.98088338 5.95695939 -1.7573941 8.14788209 -2 13 C-2.33 13 -2.66 13 -3 13 C-3.4726477 4.80743982 -3.4726477 4.80743982 -1.5 1.4375 C-0.7575 0.7259375 -0.7575 0.7259375 0 0 Z " fill="#2B0409" transform="translate(148,119)"/>
<path d="M0 0 C3.08236365 2.78407039 3.95206337 3.80825346 5 8 C2.36 6.02 -0.28 4.04 -3 2 C-2.01 1.34 -1.02 0.68 0 0 Z " fill="#700C19" transform="translate(227,55)"/>
<path d="M0 0 C2.50037734 2.17424117 3.43628586 3.73045798 4 7 C3.01 7.33 2.02 7.66 1 8 C0.67 5.36 0.34 2.72 0 0 Z " fill="#680B17" transform="translate(256,79)"/>
</svg>
