<?xml version="1.0" encoding="UTF-8"?>
<!DOCTYPE svg PUBLIC "-//W3C//DTD SVG 1.1//EN" "http://www.w3.org/Graphics/SVG/1.1/DTD/svg11.dtd">
<svg xmlns="http://www.w3.org/2000/svg" version="1.1" width="1536px" height="1024px" style="shape-rendering:geometricPrecision; text-rendering:geometricPrecision; image-rendering:optimizeQuality; fill-rule:evenodd; clip-rule:evenodd" xmlns:xlink="http://www.w3.org/1999/xlink">
<g><path style="opacity:1" fill="#fefefe" d="M -0.5,-0.5 C 511.5,-0.5 1023.5,-0.5 1535.5,-0.5C 1535.5,340.833 1535.5,682.167 1535.5,1023.5C 1023.5,1023.5 511.5,1023.5 -0.5,1023.5C -0.5,682.167 -0.5,340.833 -0.5,-0.5 Z"/></g>
<g><path style="opacity:1" fill="#0a0a14" d="M 261.5,190.5 C 262.314,188.369 262.814,186.036 263,183.5C 263.5,311.5 263.667,439.5 263.5,567.5C 496.833,567.5 730.167,567.5 963.5,567.5C 963.667,430.5 963.5,293.5 963,156.5C 961.542,154.04 959.709,151.873 957.5,150C 729.246,148.335 500.913,148.002 272.5,149C 269.063,150.105 266.563,152.272 265,155.5C 263.796,161.753 263.129,168.086 263,174.5C 262.501,169.511 262.334,164.511 262.5,159.5C 263.494,153.005 267.161,148.838 273.5,147C 500.167,146.333 726.833,146.333 953.5,147C 958.91,148.743 962.744,152.243 965,157.5C 965.5,294.833 965.667,432.166 965.5,569.5C 730.833,569.5 496.167,569.5 261.5,569.5C 261.5,443.167 261.5,316.833 261.5,190.5 Z"/></g>
<g><path style="opacity:1" fill="#090a0f" d="M 1401.5,183.5 C 1398.56,181.689 1395.56,179.856 1392.5,178C 1323.17,177.333 1253.83,177.333 1184.5,178C 1183.74,180.069 1183.24,182.236 1183,184.5C 1182.5,198.163 1182.33,211.829 1182.5,225.5C 1272.67,225.723 1362.67,226.39 1452.5,227.5C 1362.17,227.5 1271.83,227.5 1181.5,227.5C 1181.33,211.497 1181.5,195.497 1182,179.5C 1182.37,178.584 1182.87,177.75 1183.5,177C 1253.83,176.333 1324.17,176.333 1394.5,177C 1397.29,178.719 1399.62,180.885 1401.5,183.5 Z"/></g>
<g><path style="opacity:1" fill="#131424" d="M 1401.5,183.5 C 1419.44,197.438 1437.11,211.771 1454.5,226.5C 1454.04,227.298 1453.38,227.631 1452.5,227.5C 1362.67,226.39 1272.67,225.723 1182.5,225.5C 1182.33,211.829 1182.5,198.163 1183,184.5C 1183.24,182.236 1183.74,180.069 1184.5,178C 1253.83,177.333 1323.17,177.333 1392.5,178C 1395.56,179.856 1398.56,181.689 1401.5,183.5 Z"/></g>
<g><path style="opacity:1" fill="#131423" d="M 1170.5,180.5 C 1171.5,180.5 1172.5,180.5 1173.5,180.5C 1173.67,197.837 1173.5,215.17 1173,232.5C 1147.33,252.5 1121.67,272.5 1096,292.5C 1095.33,275.833 1095.33,259.167 1096,242.5C 1120.73,221.592 1145.56,200.925 1170.5,180.5 Z"/></g>
<g><path style="opacity:1" fill="#131525" d="M 1170.5,247.5 C 1171.83,398.001 1171.83,548.667 1170.5,699.5C 1169.06,698.048 1167.39,697.048 1165.5,696.5C 1152.17,684.504 1139.17,672.171 1126.5,659.5C 1126.94,659.565 1127.27,659.399 1127.5,659C 1124.33,655.833 1121.17,652.667 1118,649.5C 1117.67,599.833 1117.33,550.167 1117,500.5C 1114.16,490.155 1107.66,483.155 1097.5,479.5C 1096.83,421.668 1096.17,364.001 1095.5,306.5C 1095.37,305.761 1095.54,305.094 1096,304.5C 1120.44,284.877 1145.28,265.877 1170.5,247.5 Z"/></g>
<g><path style="opacity:1" fill="#030308" d="M 1165.5,696.5 C 1167.39,697.048 1169.06,698.048 1170.5,699.5C 1171.83,548.667 1171.83,398.001 1170.5,247.5C 1171.12,246.373 1171.96,245.373 1173,244.5C 1172.89,396.499 1172.56,548.499 1172,700.5C 1169.12,700.869 1166.96,699.535 1165.5,696.5 Z"/></g>
<g><path style="opacity:1" fill="#1f1f23" d="M 990.5,498.5 C 991.333,560.665 991.833,622.999 992,685.5C 992.791,686.745 993.291,688.078 993.5,689.5C 991.59,688.025 990.424,686.025 990,683.5C 989.174,621.793 989.341,560.126 990.5,498.5 Z"/></g>
<g><path style="opacity:1" fill="#010104" d="M 1095.5,306.5 C 1096.17,364.001 1096.83,421.668 1097.5,479.5C 1107.66,483.155 1114.16,490.155 1117,500.5C 1117.33,550.167 1117.67,599.833 1118,649.5C 1121.17,652.667 1124.33,655.833 1127.5,659C 1127.27,659.399 1126.94,659.565 1126.5,659.5C 1123.2,656.704 1120.04,653.704 1117,650.5C 1116.67,601.5 1116.33,552.5 1116,503.5C 1114.06,492.052 1107.56,484.385 1096.5,480.5C 1095.5,422.504 1095.17,364.504 1095.5,306.5 Z"/></g>
<g><path style="opacity:1" fill="#131525" d="M 261.5,190.5 C 261.172,179.986 261.506,169.653 262.5,159.5C 262.334,164.511 262.501,169.511 263,174.5C 263.129,168.086 263.796,161.753 265,155.5C 266.563,152.272 269.063,150.105 272.5,149C 500.913,148.002 729.246,148.335 957.5,150C 959.709,151.873 961.542,154.04 963,156.5C 963.5,293.5 963.667,430.5 963.5,567.5C 730.167,567.5 496.833,567.5 263.5,567.5C 263.667,439.5 263.5,311.5 263,183.5C 262.814,186.036 262.314,188.369 261.5,190.5 Z"/></g>
<g><path style="opacity:1" fill="#000000" d="M 945.5,549.5 C 724.001,550.5 502.334,550.833 280.5,550.5C 280.5,422.167 280.5,293.833 280.5,165.5C 502.5,165.5 724.5,165.5 946.5,165.5C 946.833,293.668 946.5,421.668 945.5,549.5 Z"/></g>
<g><path style="opacity:1" fill="#c6e5e9" d="M 944.5,166.5 C 945.5,293.999 945.833,421.666 945.5,549.5C 723.999,549.833 502.666,549.5 281.5,548.5C 502.5,548.5 723.5,548.5 944.5,548.5C 944.5,421.167 944.5,293.833 944.5,166.5 Z"/></g>
<g><path style="opacity:1" fill="#eefcfd" d="M 944.5,166.5 C 944.5,293.833 944.5,421.167 944.5,548.5C 723.5,548.5 502.5,548.5 281.5,548.5C 281.5,421.167 281.5,293.833 281.5,166.5C 502.5,166.5 723.5,166.5 944.5,166.5 Z"/></g>
<g><path style="opacity:1" fill="#e2fdfe" d="M 283.5,168.5 C 503.5,168.5 723.5,168.5 943.5,168.5C 943.5,294.833 943.5,421.167 943.5,547.5C 723.5,547.5 503.5,547.5 283.5,547.5C 283.5,421.167 283.5,294.833 283.5,168.5 Z"/></g>
<g><path style="opacity:1" fill="#171928" d="M 445.5,487.5 C 467.169,487.333 488.836,487.5 510.5,488C 515.796,491.766 515.796,495.433 510.5,499C 488.833,499.667 467.167,499.667 445.5,499C 441.787,497.309 440.621,494.475 442,490.5C 443.145,489.364 444.312,488.364 445.5,487.5 Z"/></g>
<g><path style="opacity:1" fill="#141622" d="M 425.5,460.5 C 430.006,459.527 432.172,461.194 432,465.5C 425.883,478.236 419.383,490.736 412.5,503C 407.504,503.664 405.67,501.498 407,496.5C 412.924,484.317 419.091,472.317 425.5,460.5 Z"/></g>
<g><path style="opacity:1" fill="#131421" d="M 444.5,462.5 C 457.504,462.333 470.504,462.5 483.5,463C 484.416,463.374 485.25,463.874 486,464.5C 486.978,467.669 486.478,470.503 484.5,473C 471.167,473.667 457.833,473.667 444.5,473C 441.88,469.502 441.88,466.002 444.5,462.5 Z"/></g>
<g><path style="opacity:1" fill="#131423" d="M 453.5,436.5 C 473.503,436.333 493.503,436.5 513.5,437C 517.213,438.691 518.379,441.525 517,445.5C 516.097,446.701 514.931,447.535 513.5,448C 493.5,448.667 473.5,448.667 453.5,448C 448.209,444.085 448.209,440.252 453.5,436.5 Z"/></g>
<g><path style="opacity:1" fill="#181a29" d="M 548.5,410.5 C 566.836,410.333 585.17,410.5 603.5,411C 608.371,414.178 608.704,417.845 604.5,422C 585.833,422.667 567.167,422.667 548.5,422C 544.555,418.169 544.555,414.336 548.5,410.5 Z"/></g>
<g><path style="opacity:1" fill="#11111f" d="M 454.5,411.5 C 480.502,411.333 506.502,411.5 532.5,412C 535.333,415.663 535,418.996 531.5,422C 505.833,422.667 480.167,422.667 454.5,422C 450.55,418.551 450.55,415.051 454.5,411.5 Z"/></g>
<g><path style="opacity:1" fill="#010101" d="M 471.5,385.5 C 542.167,385.333 612.834,385.5 683.5,386C 686.167,389 686.167,392 683.5,395C 611.915,396.66 540.248,396.993 468.5,396C 465.627,392.421 465.96,389.255 469.5,386.5C 469.938,386.435 470.272,386.601 470.5,387C 467.068,389.367 466.735,392.034 469.5,395C 539.833,395.667 610.167,395.667 680.5,395C 684.531,393.028 685.197,390.362 682.5,387C 611.999,386.833 541.665,386.333 471.5,385.5 Z"/></g>
<g><path style="opacity:1" fill="#141526" d="M 469.5,386.5 C 469.842,385.662 470.508,385.328 471.5,385.5C 541.665,386.333 611.999,386.833 682.5,387C 685.197,390.362 684.531,393.028 680.5,395C 610.167,395.667 539.833,395.667 469.5,395C 466.735,392.034 467.068,389.367 470.5,387C 470.272,386.601 469.938,386.435 469.5,386.5 Z"/></g>
<g><path style="opacity:1" fill="#fdfefd" d="M 466.5,364.5 C 466.461,367.089 467.461,369.089 469.5,370.5C 563.763,371.497 658.096,371.831 752.5,371.5C 658.903,372.665 564.57,372.832 469.5,372C 465.707,370.447 464.707,367.947 466.5,364.5 Z"/></g>
<g><path style="opacity:1" fill="#20252a" d="M 752.5,360.5 C 756.254,361.828 757.421,364.494 756,368.5C 754.855,369.636 753.688,370.636 752.5,371.5C 658.096,371.831 563.763,371.497 469.5,370.5C 563.999,369.667 658.666,369.167 753.5,369C 754.959,365.929 754.626,363.096 752.5,360.5 Z"/></g>
<g><path style="opacity:1" fill="#121320" d="M 771.5,358.5 C 781,361 789.833,365 798,370.5C 798.667,371.833 798.667,373.167 798,374.5C 791.079,379.045 783.912,383.212 776.5,387C 771.448,387.105 769.615,384.605 771,379.5C 773.754,376.872 776.921,374.872 780.5,373.5C 776.583,371.292 772.75,368.959 769,366.5C 768.018,363.225 768.851,360.559 771.5,358.5 Z"/></g>
<g><path style="opacity:1" fill="#131525" d="M 751.5,359.5 C 752.167,359.5 752.5,359.833 752.5,360.5C 754.626,363.096 754.959,365.929 753.5,369C 658.666,369.167 563.999,369.667 469.5,370.5C 467.461,369.089 466.461,367.089 466.5,364.5C 466.427,362.973 467.094,361.973 468.5,361.5C 562.973,360.84 657.306,360.174 751.5,359.5 Z"/></g>
<g><path style="opacity:1" fill="#000001" d="M 751.5,359.5 C 657.306,360.174 562.973,360.84 468.5,361.5C 468.611,360.883 468.944,360.383 469.5,360C 563.499,359.5 657.499,359.333 751.5,359.5 Z"/></g>
<g><path style="opacity:1" fill="#131525" d="M 515.5,341.5 C 514.833,342.833 513.833,343.833 512.5,344.5C 493.004,343.668 473.338,343.168 453.5,343C 450.554,339.45 451.221,336.784 455.5,335C 474.167,334.333 492.833,334.333 511.5,335C 513.628,336.748 514.961,338.915 515.5,341.5 Z"/></g>
<g><path style="opacity:1" fill="#030306" d="M 515.5,341.5 C 514.961,338.915 513.628,336.748 511.5,335C 492.833,334.333 474.167,334.333 455.5,335C 451.221,336.784 450.554,339.45 453.5,343C 473.338,343.168 493.004,343.668 512.5,344.5C 492.497,344.667 472.497,344.5 452.5,344C 449.667,340.337 450,337.004 453.5,334C 473.167,333.333 492.833,333.333 512.5,334C 515.039,335.805 516.039,338.305 515.5,341.5 Z"/></g>
<g><path style="opacity:1" fill="#fcfdfd" d="M 608.5,307.5 C 548.832,307.333 489.166,307.5 429.5,308C 428.058,308.377 427.058,309.21 426.5,310.5C 424.808,314.145 425.808,316.978 429.5,319C 489.167,319.667 548.833,319.667 608.5,319C 610.324,318.34 611.657,317.173 612.5,315.5C 613.043,315.56 613.376,315.893 613.5,316.5C 612.687,317.814 611.687,318.981 610.5,320C 549.833,320.667 489.167,320.667 428.5,320C 422.297,316.171 421.964,311.838 427.5,307C 488.001,306.168 548.335,306.335 608.5,307.5 Z"/></g>
<g><path style="opacity:1" fill="#161828" d="M 610.5,309.5 C 612.28,310.99 612.946,312.99 612.5,315.5C 611.657,317.173 610.324,318.34 608.5,319C 548.833,319.667 489.167,319.667 429.5,319C 425.808,316.978 424.808,314.145 426.5,310.5C 427.078,311.547 427.744,311.38 428.5,310C 489.166,309.5 549.832,309.333 610.5,309.5 Z"/></g>
<g><path style="opacity:1" fill="#040513" d="M 608.5,307.5 C 609.5,307.833 610.167,308.5 610.5,309.5C 549.832,309.333 489.166,309.5 428.5,310C 427.744,311.38 427.078,311.547 426.5,310.5C 427.058,309.21 428.058,308.377 429.5,308C 489.166,307.5 548.832,307.333 608.5,307.5 Z"/></g>
<g><path style="opacity:1" fill="#121321" d="M 565.5,258.5 C 583.503,258.333 601.503,258.5 619.5,259C 623.747,263.163 623.414,266.829 618.5,270C 600.833,270.667 583.167,270.667 565.5,270C 561.508,266.001 561.508,262.168 565.5,258.5 Z"/></g>
<g><path style="opacity:1" fill="#121321" d="M 445.5,258.5 C 479.168,258.333 512.835,258.5 546.5,259C 551.285,262.26 551.619,265.927 547.5,270C 513.833,270.667 480.167,270.667 446.5,270C 441.531,266.66 441.197,262.827 445.5,258.5 Z"/></g>
<g><path style="opacity:1" fill="#080b16" d="M 672.5,243.5 C 672.062,243.565 671.728,243.399 671.5,243C 674.737,240.581 675.07,237.915 672.5,235C 619.167,234.333 565.833,234.333 512.5,235C 511.167,237.333 511.167,239.667 512.5,242C 564.5,242.333 616.5,242.667 668.5,243C 669.416,243.278 670.082,243.778 670.5,244.5C 618.166,244.667 565.832,244.5 513.5,244C 508.715,240.74 508.381,237.073 512.5,233C 565.833,232.333 619.167,232.333 672.5,233C 676.478,236.623 676.478,240.123 672.5,243.5 Z"/></g>
<g><path style="opacity:1" fill="#141526" d="M 672.5,243.5 C 672.158,244.338 671.492,244.672 670.5,244.5C 670.082,243.778 669.416,243.278 668.5,243C 616.5,242.667 564.5,242.333 512.5,242C 511.167,239.667 511.167,237.333 512.5,235C 565.833,234.333 619.167,234.333 672.5,235C 675.07,237.915 674.737,240.581 671.5,243C 671.728,243.399 672.062,243.565 672.5,243.5 Z"/></g>
<g><path style="opacity:1" fill="#121422" d="M 446.5,232.5 C 461.17,232.333 475.837,232.5 490.5,233C 494.501,235.107 495.501,238.273 493.5,242.5C 492.975,243.192 492.308,243.692 491.5,244C 476.5,244.667 461.5,244.667 446.5,244C 442.787,242.309 441.621,239.475 443,235.5C 444.145,234.364 445.312,233.364 446.5,232.5 Z"/></g>
<g><path style="opacity:1" fill="#12131e" d="M 358.5,213.5 C 362.803,213.963 364.636,216.296 364,220.5C 359.771,224.362 355.271,227.862 350.5,231C 354.698,234.03 359.032,236.863 363.5,239.5C 364.544,241.768 364.711,244.101 364,246.5C 363.196,247.804 362.029,248.471 360.5,248.5C 353.99,244.172 347.323,240.005 340.5,236C 336.402,232.351 336.735,229.018 341.5,226C 347.59,222.301 353.257,218.134 358.5,213.5 Z"/></g>
<g><path style="opacity:1" fill="#121320" d="M 392.5,209.5 C 397.006,208.527 399.172,210.194 399,214.5C 393.333,227.167 387.667,239.833 382,252.5C 375.511,253.464 373.844,250.798 377,244.5C 381.882,232.679 387.049,221.013 392.5,209.5 Z"/></g>
<g><path style="opacity:1" fill="#181b1e" d="M 583.5,209.5 C 532.374,208.178 480.874,208.178 429,209.5C 427.788,212.834 428.621,215.334 431.5,217C 481.002,217.167 530.335,217.667 579.5,218.5C 529.832,218.667 480.166,218.5 430.5,218C 425.167,214.333 425.167,210.667 430.5,207C 480.5,206.333 530.5,206.333 580.5,207C 581.942,207.377 582.942,208.21 583.5,209.5 Z"/></g>
<g><path style="opacity:1" fill="#131525" d="M 583.5,209.5 C 585.583,213.933 584.249,216.933 579.5,218.5C 530.335,217.667 481.002,217.167 431.5,217C 428.621,215.334 427.788,212.834 429,209.5C 480.874,208.178 532.374,208.178 583.5,209.5 Z"/></g>
<g><path style="opacity:1" fill="#131524" d="M 213.5,694.5 C 178.002,693.667 142.336,693.167 106.5,693C 103.461,691.969 100.961,690.135 99,687.5C 97.3445,625.224 97.0112,562.891 98,500.5C 99.0608,497.438 100.894,494.938 103.5,493C 103.272,492.601 102.938,492.435 102.5,492.5C 103.842,491.207 105.509,490.374 107.5,490C 142.5,489.333 177.5,489.333 212.5,490C 217.573,491.406 221.073,494.572 223,499.5C 223.667,561.167 223.667,622.833 223,684.5C 221.684,689.648 218.517,692.982 213.5,694.5 Z"/></g>
<g><path style="opacity:1" fill="#fd9117" d="M 116.5,549.5 C 117.317,551.969 117.817,554.635 118,557.5C 118.667,556.833 119.333,556.167 120,555.5C 124.213,558.848 129.046,560.514 134.5,560.5C 134.263,559.209 134.596,558.209 135.5,557.5C 135.232,559.099 135.566,560.432 136.5,561.5C 136.517,563.565 136.85,565.565 137.5,567.5C 136.571,568.936 135.405,570.269 134,571.5C 129.867,570.709 125.7,569.876 121.5,569C 119.508,568.426 118.008,567.259 117,565.5C 116.536,566.094 116.369,566.761 116.5,567.5C 115.234,561.63 115.234,555.63 116.5,549.5 Z"/></g>
<g><path style="opacity:1" fill="#438dfd" d="M 204.5,566.5 C 204.737,567.791 204.404,568.791 203.5,569.5C 202.89,567.15 202.556,567.483 202.5,570.5C 196.512,567.911 190.178,566.911 183.5,567.5C 183.737,566.209 183.404,565.209 182.5,564.5C 182.5,563.833 182.5,563.167 182.5,562.5C 183.117,562.389 183.617,562.056 184,561.5C 189.155,564.305 194.655,565.138 200.5,564C 201.931,563.535 203.097,562.701 204,561.5C 204.494,563.134 204.66,564.801 204.5,566.5 Z"/></g>
<g><path style="opacity:1" fill="#566df2" d="M 204.5,552.5 C 205.833,557.167 205.833,561.833 204.5,566.5C 204.66,564.801 204.494,563.134 204,561.5C 203.097,562.701 201.931,563.535 200.5,564C 194.655,565.138 189.155,564.305 184,561.5C 183.617,562.056 183.117,562.389 182.5,562.5C 182.5,560.167 182.5,557.833 182.5,555.5C 183.267,556.172 183.934,557.005 184.5,558C 190.785,558.325 196.952,558.492 203,558.5C 204.128,556.655 204.628,554.655 204.5,552.5 Z"/></g>
<g><path style="opacity:1" fill="#fd711b" d="M 119.5,541.5 C 119.292,543.92 119.626,546.253 120.5,548.5C 125.05,552.143 129.884,554.477 135,555.5C 135.464,556.094 135.631,556.761 135.5,557.5C 134.596,558.209 134.263,559.209 134.5,560.5C 129.046,560.514 124.213,558.848 120,555.5C 119.333,556.167 118.667,556.833 118,557.5C 117.817,554.635 117.317,551.969 116.5,549.5C 117.129,546.603 118.129,543.936 119.5,541.5 Z"/></g>
<g><path style="opacity:1" fill="#8e44e8" d="M 202.5,544.5 C 203.774,546.993 204.44,549.659 204.5,552.5C 204.628,554.655 204.128,556.655 203,558.5C 196.952,558.492 190.785,558.325 184.5,558C 183.934,557.005 183.267,556.172 182.5,555.5C 182.371,553.784 182.038,552.117 181.5,550.5C 188.409,548.578 195.409,546.578 202.5,544.5 Z"/></g>
<g><path style="opacity:1" fill="#ba25a8" d="M 199.5,538.5 C 201.008,540.181 202.008,542.181 202.5,544.5C 195.409,546.578 188.409,548.578 181.5,550.5C 180.662,550.158 180.328,549.492 180.5,548.5C 182.991,547.074 185.325,545.241 187.5,543C 191.905,542.149 195.905,540.649 199.5,538.5 Z"/></g>
<g><path style="opacity:1" fill="#de1d67" d="M 185.5,523.5 C 188.764,525.094 191.431,527.427 193.5,530.5C 190.408,534.212 186.408,536.879 181.5,538.5C 180.614,539.325 180.281,540.325 180.5,541.5C 179.041,541.433 177.708,541.766 176.5,542.5C 174.611,541.396 172.945,540.063 171.5,538.5C 177.12,535.19 181.787,530.19 185.5,523.5 Z"/></g>
<g><path style="opacity:1" fill="#cc2084" d="M 193.5,530.5 C 195.975,532.77 197.975,535.437 199.5,538.5C 195.905,540.649 191.905,542.149 187.5,543C 185.325,545.241 182.991,547.074 180.5,548.5C 178.808,546.795 177.475,544.795 176.5,542.5C 177.708,541.766 179.041,541.433 180.5,541.5C 180.281,540.325 180.614,539.325 181.5,538.5C 186.408,536.879 190.408,534.212 193.5,530.5 Z"/></g>
<g><path style="opacity:1" fill="#131524" d="M 166.5,536.5 C 167.93,537.537 169.597,538.204 171.5,538.5C 172.945,540.063 174.611,541.396 176.5,542.5C 177.475,544.795 178.808,546.795 180.5,548.5C 180.328,549.492 180.662,550.158 181.5,550.5C 182.038,552.117 182.371,553.784 182.5,555.5C 182.5,557.833 182.5,560.167 182.5,562.5C 182.5,563.167 182.5,563.833 182.5,564.5C 181.89,565.391 181.557,566.391 181.5,567.5C 180.075,570.688 178.408,573.688 176.5,576.5C 174.205,577.475 172.205,578.808 170.5,580.5C 167.888,581.371 165.221,582.037 162.5,582.5C 158.766,582.677 155.099,582.344 151.5,581.5C 150.609,580.89 149.609,580.557 148.5,580.5C 147.71,579.599 146.71,578.932 145.5,578.5C 143.833,576.167 141.833,574.167 139.5,572.5C 139.107,570.716 138.441,569.05 137.5,567.5C 136.85,565.565 136.517,563.565 136.5,561.5C 135.729,550.634 140.062,542.634 149.5,537.5C 155.061,535.372 160.728,535.039 166.5,536.5 Z"/></g>
<g><path style="opacity:1" fill="#fc3e25" d="M 138.5,520.5 C 139.067,523.576 139.401,526.576 139.5,529.5C 140.5,529.5 141.5,529.5 142.5,529.5C 142.331,534.041 142.998,534.374 144.5,530.5C 145.382,531.76 146.382,532.926 147.5,534C 146.833,534.333 146.167,534.667 145.5,535C 147.437,535.122 148.77,535.955 149.5,537.5C 140.062,542.634 135.729,550.634 136.5,561.5C 135.566,560.432 135.232,559.099 135.5,557.5C 135.631,556.761 135.464,556.094 135,555.5C 129.884,554.477 125.05,552.143 120.5,548.5C 119.626,546.253 119.292,543.92 119.5,541.5C 123.365,532.3 129.699,525.3 138.5,520.5 Z"/></g>
<g><path style="opacity:1" fill="#fa1c30" d="M 178.5,519.5 C 177.069,519.881 176.236,520.881 176,522.5C 174.334,521.66 174.167,522.16 175.5,524C 173.699,524.317 173.366,524.984 174.5,526C 171.372,528.346 169.539,531.513 169,535.5C 168.329,536.252 167.496,536.586 166.5,536.5C 160.728,535.039 155.061,535.372 149.5,537.5C 148.77,535.955 147.437,535.122 145.5,535C 146.167,534.667 146.833,534.333 147.5,534C 146.382,532.926 145.382,531.76 144.5,530.5C 142.998,534.374 142.331,534.041 142.5,529.5C 141.5,529.5 140.5,529.5 139.5,529.5C 139.401,526.576 139.067,523.576 138.5,520.5C 151.796,513.094 165.129,512.761 178.5,519.5 Z"/></g>
<g><path style="opacity:1" fill="#eb1b4e" d="M 178.5,519.5 C 181.331,520.079 183.664,521.412 185.5,523.5C 181.787,530.19 177.12,535.19 171.5,538.5C 169.597,538.204 167.93,537.537 166.5,536.5C 167.496,536.586 168.329,536.252 169,535.5C 169.539,531.513 171.372,528.346 174.5,526C 173.366,524.984 173.699,524.317 175.5,524C 174.167,522.16 174.334,521.66 176,522.5C 176.236,520.881 177.069,519.881 178.5,519.5 Z"/></g>
<g><path style="opacity:1" fill="#2fa2fb" d="M 182.5,564.5 C 183.404,565.209 183.737,566.209 183.5,567.5C 190.178,566.911 196.512,567.911 202.5,570.5C 202.217,571.289 201.717,571.956 201,572.5C 194.645,572.07 188.479,571.404 182.5,570.5C 182.737,569.209 182.404,568.209 181.5,567.5C 181.557,566.391 181.89,565.391 182.5,564.5 Z"/></g>
<g><path style="opacity:1" fill="#22b7f5" d="M 203.5,569.5 C 203.59,572.152 202.924,574.485 201.5,576.5C 201.631,575.761 201.464,575.094 201,574.5C 200.33,577.174 199.163,579.507 197.5,581.5C 196.245,579.359 194.578,578.693 192.5,579.5C 190.205,578.568 187.871,577.735 185.5,577C 184.965,574.891 183.965,574.391 182.5,575.5C 181.212,573.701 181.212,572.035 182.5,570.5C 188.479,571.404 194.645,572.07 201,572.5C 201.717,571.956 202.217,571.289 202.5,570.5C 202.556,567.483 202.89,567.15 203.5,569.5 Z"/></g>
<g><path style="opacity:1" fill="#131525" d="M 999.5,490.5 C 1031.66,491.332 1064,491.832 1096.5,492C 1099.56,493.061 1102.06,494.894 1104,497.5C 1105.5,561.329 1106,624.996 1105.5,688.5C 1103.05,691.899 1099.72,694.065 1095.5,695C 1064.17,695.667 1032.83,695.667 1001.5,695C 997.86,694.364 995.194,692.531 993.5,689.5C 993.291,688.078 992.791,686.745 992,685.5C 991.833,622.999 991.333,560.665 990.5,498.5C 992.254,494.412 995.254,491.745 999.5,490.5 Z"/></g>
<g><path style="opacity:1" fill="#7ef871" d="M 1024.5,562.5 C 1025.43,563.568 1025.77,564.901 1025.5,566.5C 1025.75,568.827 1025.09,570.827 1023.5,572.5C 1019.84,574.99 1016.68,577.99 1014,581.5C 1012.61,578.875 1011.44,578.875 1010.5,581.5C 1009.5,579.5 1008.5,577.5 1007.5,575.5C 1008.47,572.601 1009.8,569.768 1011.5,567C 1015.78,564.298 1020.11,562.798 1024.5,562.5 Z"/></g>
<g><path style="opacity:1" fill="#71b1fc" d="M 1072.5,558.5 C 1072.5,558.167 1072.5,557.833 1072.5,557.5C 1078.63,559.159 1084.96,560.159 1091.5,560.5C 1091.66,561.873 1091.49,563.207 1091,564.5C 1088.67,565.833 1086.33,567.167 1084,568.5C 1080.21,567.864 1076.38,567.197 1072.5,566.5C 1073.78,563.697 1073.78,561.03 1072.5,558.5 Z"/></g>
<g><path style="opacity:1" fill="#b0f74f" d="M 1024.5,561.5 C 1024.5,561.833 1024.5,562.167 1024.5,562.5C 1020.11,562.798 1015.78,564.298 1011.5,567C 1009.8,569.768 1008.47,572.601 1007.5,575.5C 1006.3,571.89 1005.3,568.223 1004.5,564.5C 1005.22,564.918 1005.72,565.584 1006,566.5C 1006.32,562.915 1008.15,560.415 1011.5,559C 1015.49,558.501 1019.49,558.334 1023.5,558.5C 1023.26,559.791 1023.6,560.791 1024.5,561.5 Z"/></g>
<g><path style="opacity:1" fill="#d5f131" d="M 1024.5,555.5 C 1024.5,557.5 1024.5,559.5 1024.5,561.5C 1023.6,560.791 1023.26,559.791 1023.5,558.5C 1019.49,558.334 1015.49,558.501 1011.5,559C 1008.15,560.415 1006.32,562.915 1006,566.5C 1005.72,565.584 1005.22,564.918 1004.5,564.5C 1004.5,563.833 1004.5,563.167 1004.5,562.5C 1005.72,560.172 1006.72,557.672 1007.5,555C 1013.41,555.429 1019.08,555.595 1024.5,555.5 Z"/></g>
<g><path style="opacity:1" fill="#9a8fec" d="M 1092.5,553.5 C 1092.5,555.5 1092.5,557.5 1092.5,559.5C 1091.83,559.5 1091.5,559.833 1091.5,560.5C 1084.96,560.159 1078.63,559.159 1072.5,557.5C 1072.5,556.167 1072.5,554.833 1072.5,553.5C 1078.96,552.511 1085.63,552.511 1092.5,553.5 Z"/></g>
<g><path style="opacity:1" fill="#f4e51c" d="M 1006.5,545.5 C 1007.27,546.263 1007.77,547.263 1008,548.5C 1008.33,547.833 1008.67,547.167 1009,546.5C 1012.49,553.726 1017.66,555.393 1024.5,551.5C 1024.83,551.5 1025.17,551.5 1025.5,551.5C 1025.77,553.099 1025.43,554.432 1024.5,555.5C 1019.08,555.595 1013.41,555.429 1007.5,555C 1006.72,557.672 1005.72,560.172 1004.5,562.5C 1004.12,556.66 1004.79,550.994 1006.5,545.5 Z"/></g>
<g><path style="opacity:1" fill="#b36cc1" d="M 1089.5,543.5 C 1091.28,546.505 1092.28,549.838 1092.5,553.5C 1085.63,552.511 1078.96,552.511 1072.5,553.5C 1071.33,552.486 1070.66,551.153 1070.5,549.5C 1071.63,548.878 1072.63,548.045 1073.5,547C 1079.49,546.528 1084.82,545.361 1089.5,543.5 Z"/></g>
<g><path style="opacity:1" fill="#fbbc17" d="M 1008.5,540.5 C 1009.39,542.291 1010.39,544.124 1011.5,546C 1015.86,547.848 1020.19,549.682 1024.5,551.5C 1017.66,555.393 1012.49,553.726 1009,546.5C 1008.67,547.167 1008.33,547.833 1008,548.5C 1007.77,547.263 1007.27,546.263 1006.5,545.5C 1006.89,543.716 1007.56,542.05 1008.5,540.5 Z"/></g>
<g><path style="opacity:1" fill="#fc9019" d="M 1011.5,535.5 C 1011.94,535.435 1012.27,535.601 1012.5,536C 1011.83,537 1011.17,538 1010.5,539C 1015.73,540.897 1019.73,544.23 1022.5,549C 1024.11,549.062 1025.45,549.229 1026.5,549.5C 1026.67,550.492 1026.34,551.158 1025.5,551.5C 1025.17,551.5 1024.83,551.5 1024.5,551.5C 1020.19,549.682 1015.86,547.848 1011.5,546C 1010.39,544.124 1009.39,542.291 1008.5,540.5C 1009.26,538.632 1010.26,536.965 1011.5,535.5 Z"/></g>
<g><path style="opacity:1" fill="#131524" d="M 1044.5,535.5 C 1047.17,535.5 1049.83,535.5 1052.5,535.5C 1055.54,536.517 1058.54,537.851 1061.5,539.5C 1065.21,542.211 1068.21,545.544 1070.5,549.5C 1070.66,551.153 1071.33,552.486 1072.5,553.5C 1072.5,554.833 1072.5,556.167 1072.5,557.5C 1072.5,557.833 1072.5,558.167 1072.5,558.5C 1072.07,564.79 1070.07,570.457 1066.5,575.5C 1060.24,581.03 1052.91,583.364 1044.5,582.5C 1042.03,582.233 1039.7,581.566 1037.5,580.5C 1036.4,579.4 1035.06,578.733 1033.5,578.5C 1033.5,577.833 1033.17,577.5 1032.5,577.5C 1029.71,574.058 1027.37,570.391 1025.5,566.5C 1025.77,564.901 1025.43,563.568 1024.5,562.5C 1024.5,562.167 1024.5,561.833 1024.5,561.5C 1024.5,559.5 1024.5,557.5 1024.5,555.5C 1025.43,554.432 1025.77,553.099 1025.5,551.5C 1026.34,551.158 1026.67,550.492 1026.5,549.5C 1027.82,547.537 1029.15,545.537 1030.5,543.5C 1034.62,539.778 1039.28,537.112 1044.5,535.5 Z"/></g>
<g><path style="opacity:1" fill="#fc6424" d="M 1023.5,523.5 C 1024.33,524.329 1024,525.162 1022.5,526C 1024.88,526.974 1024.54,527.641 1021.5,528C 1024.1,530.544 1025.1,533.71 1024.5,537.5C 1027.43,538.432 1029.43,540.432 1030.5,543.5C 1029.15,545.537 1027.82,547.537 1026.5,549.5C 1025.45,549.229 1024.11,549.062 1022.5,549C 1019.73,544.23 1015.73,540.897 1010.5,539C 1011.17,538 1011.83,537 1012.5,536C 1012.27,535.601 1011.94,535.435 1011.5,535.5C 1014.5,530.5 1018.5,526.5 1023.5,523.5 Z"/></g>
<g><path style="opacity:1" fill="#d2407b" d="M 1080.5,529.5 C 1084.99,533.138 1087.99,537.805 1089.5,543.5C 1084.82,545.361 1079.49,546.528 1073.5,547C 1072.63,548.045 1071.63,548.878 1070.5,549.5C 1068.21,545.544 1065.21,542.211 1061.5,539.5C 1062.79,538.355 1063.96,538.689 1065,540.5C 1065.9,537.86 1067.4,535.693 1069.5,534C 1069.17,533.667 1068.83,533.333 1068.5,533C 1071.34,530.481 1072,527.481 1070.5,524C 1074.13,525.099 1077.47,526.933 1080.5,529.5 Z"/></g>
<g><path style="opacity:1" fill="#ec294a" d="M 1052.5,515.5 C 1054.5,515.833 1056.5,516.167 1058.5,516.5C 1058.6,519.667 1057.93,522.667 1056.5,525.5C 1057.22,527.164 1056.89,528.831 1055.5,530.5C 1056.42,532.784 1055.42,533.951 1052.5,534C 1055.1,534.779 1055.1,535.279 1052.5,535.5C 1049.83,535.5 1047.17,535.5 1044.5,535.5C 1045.76,530.566 1048.09,525.733 1051.5,521C 1051.17,520.667 1050.83,520.333 1050.5,520C 1051.83,519.667 1053.17,519.333 1054.5,519C 1053.69,517.887 1053.03,516.721 1052.5,515.5 Z"/></g>
<g><path style="opacity:1" fill="#dd3060" d="M 1058.5,516.5 C 1067.43,518.291 1074.76,522.624 1080.5,529.5C 1077.47,526.933 1074.13,525.099 1070.5,524C 1072,527.481 1071.34,530.481 1068.5,533C 1068.83,533.333 1069.17,533.667 1069.5,534C 1067.4,535.693 1065.9,537.86 1065,540.5C 1063.96,538.689 1062.79,538.355 1061.5,539.5C 1058.54,537.851 1055.54,536.517 1052.5,535.5C 1055.1,535.279 1055.1,534.779 1052.5,534C 1055.42,533.951 1056.42,532.784 1055.5,530.5C 1056.89,528.831 1057.22,527.164 1056.5,525.5C 1057.93,522.667 1058.6,519.667 1058.5,516.5 Z"/></g>
<g><path style="opacity:1" fill="#f53834" d="M 1052.5,515.5 C 1053.03,516.721 1053.69,517.887 1054.5,519C 1053.17,519.333 1051.83,519.667 1050.5,520C 1050.83,520.333 1051.17,520.667 1051.5,521C 1048.09,525.733 1045.76,530.566 1044.5,535.5C 1039.28,537.112 1034.62,539.778 1030.5,543.5C 1029.43,540.432 1027.43,538.432 1024.5,537.5C 1025.1,533.71 1024.1,530.544 1021.5,528C 1024.54,527.641 1024.88,526.974 1022.5,526C 1024,525.162 1024.33,524.329 1023.5,523.5C 1032.05,517.211 1041.72,514.545 1052.5,515.5 Z"/></g>
<g><path style="opacity:1" fill="#3dc2fb" d="M 1072.5,558.5 C 1073.78,561.03 1073.78,563.697 1072.5,566.5C 1076.38,567.197 1080.21,567.864 1084,568.5C 1086.33,567.167 1088.67,565.833 1091,564.5C 1091.49,563.207 1091.66,561.873 1091.5,560.5C 1091.5,559.833 1091.83,559.5 1092.5,559.5C 1092.95,565.228 1091.95,570.562 1089.5,575.5C 1087.29,578.108 1085.12,581.441 1083,585.5C 1079.36,586.839 1077.02,585.505 1076,581.5C 1075.67,582.167 1075.33,582.833 1075,583.5C 1073.55,579.699 1071.72,579.533 1069.5,583C 1067.25,583.863 1065.42,583.363 1064,581.5C 1062.36,582.846 1061.69,582.513 1062,580.5C 1063,579.167 1064,579.167 1065,580.5C 1065.61,578.846 1066.11,577.179 1066.5,575.5C 1070.07,570.457 1072.07,564.79 1072.5,558.5 Z"/></g>
<g><path style="opacity:1" fill="#fcae12" d="M 137.5,567.5 C 138.441,569.05 139.107,570.716 139.5,572.5C 141.039,574.773 140.706,576.773 138.5,578.5C 133.632,581.923 128.632,583.923 123.5,584.5C 119.43,579.642 117.097,573.975 116.5,567.5C 116.369,566.761 116.536,566.094 117,565.5C 118.008,567.259 119.508,568.426 121.5,569C 125.7,569.876 129.867,570.709 134,571.5C 135.405,570.269 136.571,568.936 137.5,567.5 Z"/></g>
<g><path style="opacity:1" fill="#202124" d="M 950.5,604.5 C 949.761,604.631 949.094,604.464 948.5,604C 961.51,602.189 966.844,594.689 964.5,581.5C 729.958,580.836 495.625,581.502 261.5,583.5C 261.5,582.167 261.5,580.833 261.5,579.5C 496.167,579.5 730.833,579.5 965.5,579.5C 966.081,586.061 965.248,592.395 963,598.5C 959.787,602.524 955.62,604.524 950.5,604.5 Z"/></g>
<g><path style="opacity:1" fill="#1ac9ec" d="M 181.5,567.5 C 182.404,568.209 182.737,569.209 182.5,570.5C 181.212,572.035 181.212,573.701 182.5,575.5C 183.965,574.391 184.965,574.891 185.5,577C 187.871,577.735 190.205,578.568 192.5,579.5C 194.578,578.693 196.245,579.359 197.5,581.5C 196.252,583.649 194.752,585.649 193,587.5C 189.667,585.5 186.333,583.5 183,581.5C 182.667,581.833 182.333,582.167 182,582.5C 181.667,581.5 181.333,580.5 181,579.5C 180.667,579.833 180.333,580.167 180,580.5C 178.612,579.264 177.446,577.931 176.5,576.5C 178.408,573.688 180.075,570.688 181.5,567.5 Z"/></g>
<g><path style="opacity:1" fill="#4df199" d="M 1025.5,566.5 C 1027.37,570.391 1029.71,574.058 1032.5,577.5C 1032.19,578.738 1031.69,578.738 1031,577.5C 1029.8,581.208 1027.3,583.208 1023.5,583.5C 1023.5,585.167 1023.5,586.833 1023.5,588.5C 1020.74,589.254 1018.08,589.254 1015.5,588.5C 1013.59,586.343 1011.92,584.009 1010.5,581.5C 1011.44,578.875 1012.61,578.875 1014,581.5C 1016.68,577.99 1019.84,574.99 1023.5,572.5C 1025.09,570.827 1025.75,568.827 1025.5,566.5 Z"/></g>
<g><path style="opacity:1" fill="#17c9f2" d="M 1089.5,575.5 C 1083.04,591.963 1071.04,601.297 1053.5,603.5C 1051.3,602.835 1048.97,602.168 1046.5,601.5C 1047.38,600.029 1048.71,599.196 1050.5,599C 1049.83,598.667 1049.17,598.333 1048.5,598C 1049.17,596.333 1049.83,594.667 1050.5,593C 1050.5,591.667 1050.5,590.333 1050.5,589C 1049.83,588.667 1049.17,588.333 1048.5,588C 1049.06,586.324 1050.06,584.991 1051.5,584C 1048.96,583.814 1046.63,583.314 1044.5,582.5C 1052.91,583.364 1060.24,581.03 1066.5,575.5C 1066.11,577.179 1065.61,578.846 1065,580.5C 1064,579.167 1063,579.167 1062,580.5C 1061.69,582.513 1062.36,582.846 1064,581.5C 1065.42,583.363 1067.25,583.863 1069.5,583C 1071.72,579.533 1073.55,579.699 1075,583.5C 1075.33,582.833 1075.67,582.167 1076,581.5C 1077.02,585.505 1079.36,586.839 1083,585.5C 1085.12,581.441 1087.29,578.108 1089.5,575.5 Z"/></g>
<g><path style="opacity:1" fill="#2ee4bf" d="M 170.5,580.5 C 175.305,582.519 177.971,586.185 178.5,591.5C 181.321,591.316 182.988,592.649 183.5,595.5C 181.712,596.283 180.712,597.616 180.5,599.5C 177.579,600.696 174.579,601.696 171.5,602.5C 171.5,601.5 171.5,600.5 171.5,599.5C 170.5,599.5 169.5,599.5 168.5,599.5C 167.851,594.864 167.351,590.198 167,585.5C 165.69,584.103 164.19,583.103 162.5,582.5C 165.221,582.037 167.888,581.371 170.5,580.5 Z"/></g>
<g><path style="opacity:1" fill="#1bd5de" d="M 201.5,576.5 C 197.474,586.886 190.474,594.553 180.5,599.5C 180.712,597.616 181.712,596.283 183.5,595.5C 182.988,592.649 181.321,591.316 178.5,591.5C 177.971,586.185 175.305,582.519 170.5,580.5C 172.205,578.808 174.205,577.475 176.5,576.5C 177.446,577.931 178.612,579.264 180,580.5C 180.333,580.167 180.667,579.833 181,579.5C 181.333,580.5 181.667,581.5 182,582.5C 182.333,582.167 182.667,581.833 183,581.5C 186.333,583.5 189.667,585.5 193,587.5C 194.752,585.649 196.252,583.649 197.5,581.5C 199.163,579.507 200.33,577.174 201,574.5C 201.464,575.094 201.631,575.761 201.5,576.5 Z"/></g>
<g><path style="opacity:1" fill="#131525" d="M 950.5,604.5 C 905.67,605.499 860.67,605.832 815.5,605.5C 858.331,604.667 901.331,604.167 944.5,604C 848.487,603.183 752.487,603.35 656.5,604.5C 656.5,617.5 656.5,630.5 656.5,643.5C 624.167,643.5 591.833,643.5 559.5,643.5C 559.5,630.5 559.5,617.5 559.5,604.5C 465.332,604.167 371.332,604.501 277.5,605.5C 264.954,603.598 259.62,596.265 261.5,583.5C 495.625,581.502 729.958,580.836 964.5,581.5C 966.844,594.689 961.51,602.189 948.5,604C 949.094,604.464 949.761,604.631 950.5,604.5 Z"/></g>
<g><path style="opacity:1" fill="#fcc914" d="M 139.5,572.5 C 141.833,574.167 143.833,576.167 145.5,578.5C 142.884,583.633 138.717,587.967 133,591.5C 130.849,591.357 129.182,590.357 128,588.5C 127.601,588.728 127.435,589.062 127.5,589.5C 125.937,588.055 124.604,586.389 123.5,584.5C 128.632,583.923 133.632,581.923 138.5,578.5C 140.706,576.773 141.039,574.773 139.5,572.5 Z"/></g>
<g><path style="opacity:1" fill="#2ae9b7" d="M 1032.5,577.5 C 1033.17,577.5 1033.5,577.833 1033.5,578.5C 1033.51,580.017 1034.18,581.184 1035.5,582C 1034.58,582.374 1033.75,582.874 1033,583.5C 1032.59,587.297 1031.76,590.964 1030.5,594.5C 1028.68,594.831 1027.01,595.498 1025.5,596.5C 1021.43,594.792 1018.09,592.126 1015.5,588.5C 1018.08,589.254 1020.74,589.254 1023.5,588.5C 1023.5,586.833 1023.5,585.167 1023.5,583.5C 1027.3,583.208 1029.8,581.208 1031,577.5C 1031.69,578.738 1032.19,578.738 1032.5,577.5 Z"/></g>
<g><path style="opacity:1" fill="#1be3ca" d="M 1033.5,578.5 C 1035.06,578.733 1036.4,579.4 1037.5,580.5C 1037.58,581.75 1038.24,582.583 1039.5,583C 1038.64,583.689 1037.98,584.522 1037.5,585.5C 1038.83,588.5 1038.83,591.5 1037.5,594.5C 1037.03,596.134 1036.03,597.3 1034.5,598C 1034.83,598.333 1035.17,598.667 1035.5,599C 1033.87,599.494 1032.2,599.66 1030.5,599.5C 1028.33,599.25 1026.66,598.25 1025.5,596.5C 1027.01,595.498 1028.68,594.831 1030.5,594.5C 1031.76,590.964 1032.59,587.297 1033,583.5C 1033.75,582.874 1034.58,582.374 1035.5,582C 1034.18,581.184 1033.51,580.017 1033.5,578.5 Z"/></g>
<g><path style="opacity:1" fill="#eee521" d="M 145.5,578.5 C 146.71,578.932 147.71,579.599 148.5,580.5C 146.257,586.365 142.924,591.531 138.5,596C 142.651,599.072 147.318,601.072 152.5,602C 151.906,602.464 151.239,602.631 150.5,602.5C 141.164,601.002 133.497,596.668 127.5,589.5C 127.435,589.062 127.601,588.728 128,588.5C 129.182,590.357 130.849,591.357 133,591.5C 138.717,587.967 142.884,583.633 145.5,578.5 Z"/></g>
<g><path style="opacity:1" fill="#15161e" d="M 1105.5,688.5 C 1106,624.996 1105.5,561.329 1104,497.5C 1102.06,494.894 1099.56,493.061 1096.5,492C 1064,491.832 1031.66,491.332 999.5,490.5C 1031.33,489.336 1063.33,489.169 1095.5,490C 1101.33,491.833 1105.17,495.667 1107,501.5C 1107.67,562.5 1107.67,623.5 1107,684.5C 1106.59,685.901 1106.09,687.234 1105.5,688.5 Z"/></g>
<g><path style="opacity:1" fill="#13dddd" d="M 1037.5,580.5 C 1039.7,581.566 1042.03,582.233 1044.5,582.5C 1046.63,583.314 1048.96,583.814 1051.5,584C 1050.06,584.991 1049.06,586.324 1048.5,588C 1049.17,588.333 1049.83,588.667 1050.5,589C 1050.5,590.333 1050.5,591.667 1050.5,593C 1049.83,594.667 1049.17,596.333 1048.5,598C 1049.17,598.333 1049.83,598.667 1050.5,599C 1048.71,599.196 1047.38,600.029 1046.5,601.5C 1048.97,602.168 1051.3,602.835 1053.5,603.5C 1048.49,603.666 1043.49,603.499 1038.5,603C 1035.52,602.295 1032.86,601.129 1030.5,599.5C 1032.2,599.66 1033.87,599.494 1035.5,599C 1035.17,598.667 1034.83,598.333 1034.5,598C 1036.03,597.3 1037.03,596.134 1037.5,594.5C 1038.83,591.5 1038.83,588.5 1037.5,585.5C 1037.98,584.522 1038.64,583.689 1039.5,583C 1038.24,582.583 1037.58,581.75 1037.5,580.5 Z"/></g>
<g><path style="opacity:1" fill="#73f67d" d="M 151.5,581.5 C 155.099,582.344 158.766,582.677 162.5,582.5C 164.19,583.103 165.69,584.103 167,585.5C 167.351,590.198 167.851,594.864 168.5,599.5C 169.5,599.5 170.5,599.5 171.5,599.5C 171.5,600.5 171.5,601.5 171.5,602.5C 167.232,603.373 162.898,603.706 158.5,603.5C 156.618,602.763 155.952,601.596 156.5,600C 155.552,599.517 154.552,599.351 153.5,599.5C 152.189,593.583 151.522,587.583 151.5,581.5 Z"/></g>
<g><path style="opacity:1" fill="#baf748" d="M 148.5,580.5 C 149.609,580.557 150.609,580.89 151.5,581.5C 151.522,587.583 152.189,593.583 153.5,599.5C 154.552,599.351 155.552,599.517 156.5,600C 155.952,601.596 156.618,602.763 158.5,603.5C 155.615,603.806 152.948,603.473 150.5,602.5C 151.239,602.631 151.906,602.464 152.5,602C 147.318,601.072 142.651,599.072 138.5,596C 142.924,591.531 146.257,586.365 148.5,580.5 Z"/></g>
<g><path style="opacity:1" fill="#010105" d="M 815.5,605.5 C 762.833,605.5 710.167,605.5 657.5,605.5C 657.5,618.5 657.5,631.5 657.5,644.5C 624.5,644.5 591.5,644.5 558.5,644.5C 558.5,631.5 558.5,618.5 558.5,605.5C 464.833,605.5 371.167,605.5 277.5,605.5C 371.332,604.501 465.332,604.167 559.5,604.5C 559.5,617.5 559.5,630.5 559.5,643.5C 591.833,643.5 624.167,643.5 656.5,643.5C 656.5,630.5 656.5,617.5 656.5,604.5C 752.487,603.35 848.487,603.183 944.5,604C 901.331,604.167 858.331,604.667 815.5,605.5 Z"/></g>
<g><path style="opacity:1" fill="#35b9e6" d="M 156.5,629.5 C 157.239,629.369 157.906,629.536 158.5,630C 154.489,630.166 153.989,631 157,632.5C 157.495,634.473 157.662,636.473 157.5,638.5C 158.552,638.351 159.552,638.517 160.5,639C 158.942,639.21 157.609,639.71 156.5,640.5C 156.167,640.5 155.833,640.5 155.5,640.5C 154.214,637.046 152.214,634.046 149.5,631.5C 151.515,630.076 153.848,629.41 156.5,629.5 Z"/></g>
<g><path style="opacity:1" fill="#5187ed" d="M 156.5,629.5 C 165.348,627.748 172.348,630.748 177.5,638.5C 176.883,638.611 176.383,638.944 176,639.5C 169.97,629.531 167.304,630.197 168,641.5C 171.273,646.233 171.106,650.9 167.5,655.5C 168.407,658.421 168.74,661.421 168.5,664.5C 169.5,664.5 170.5,664.5 171.5,664.5C 170.101,665.89 168.434,666.89 166.5,667.5C 164.505,664.571 163.505,661.237 163.5,657.5C 164.793,655.704 166.293,654.037 168,652.5C 170.314,642.975 166.48,638.975 156.5,640.5C 157.609,639.71 158.942,639.21 160.5,639C 159.552,638.517 158.552,638.351 157.5,638.5C 157.662,636.473 157.495,634.473 157,632.5C 153.989,631 154.489,630.166 158.5,630C 157.906,629.536 157.239,629.369 156.5,629.5 Z"/></g>
<g><path style="opacity:1" fill="#4be1b5" d="M 149.5,631.5 C 152.214,634.046 154.214,637.046 155.5,640.5C 154.167,641.5 152.833,642.5 151.5,643.5C 149.187,640.083 145.854,638.749 141.5,639.5C 143.167,635.833 145.833,633.167 149.5,631.5 Z"/></g>
<g><path style="opacity:1" fill="#86ef81" d="M 141.5,639.5 C 145.854,638.749 149.187,640.083 151.5,643.5C 150.781,645.764 150.448,648.097 150.5,650.5C 146.833,650.5 143.167,650.5 139.5,650.5C 139.242,646.628 139.909,642.961 141.5,639.5 Z"/></g>
<g><path style="opacity:1" fill="#161525" d="M 1051.5,639.5 C 1057.07,642.01 1058.9,646.343 1057,652.5C 1055.24,654.765 1053.08,656.432 1050.5,657.5C 1048.83,657.5 1047.17,657.5 1045.5,657.5C 1038.42,653.831 1037.08,648.665 1041.5,642C 1044.54,639.994 1047.87,639.16 1051.5,639.5 Z"/></g>
<g><path style="opacity:1" fill="#141422" d="M 155.5,640.5 C 155.833,640.5 156.167,640.5 156.5,640.5C 166.48,638.975 170.314,642.975 168,652.5C 166.293,654.037 164.793,655.704 163.5,657.5C 161.5,657.5 159.5,657.5 157.5,657.5C 154.167,656.167 151.833,653.833 150.5,650.5C 150.448,648.097 150.781,645.764 151.5,643.5C 152.833,642.5 154.167,641.5 155.5,640.5 Z"/></g>
<g><path style="opacity:1" fill="#fa901d" d="M 1041.5,630.5 C 1042.24,630.369 1042.91,630.536 1043.5,631C 1041.75,631.471 1040.09,632.138 1038.5,633C 1039.26,634.441 1039.93,635.941 1040.5,637.5C 1044.31,638.167 1047.98,638.834 1051.5,639.5C 1047.87,639.16 1044.54,639.994 1041.5,642C 1037.08,648.665 1038.42,653.831 1045.5,657.5C 1044.07,657.579 1042.74,657.246 1041.5,656.5C 1041.87,657.771 1041.21,658.938 1039.5,660C 1041.29,661.681 1041.79,663.514 1041,665.5C 1042.4,666.227 1043.9,666.727 1045.5,667C 1044.91,667.464 1044.24,667.631 1043.5,667.5C 1033.48,664.971 1028.48,658.471 1028.5,648C 1029.09,639.306 1033.42,633.473 1041.5,630.5 Z"/></g>
<g><path style="opacity:1" fill="#3370fc" d="M 177.5,638.5 C 182.432,648.773 180.432,657.439 171.5,664.5C 170.5,664.5 169.5,664.5 168.5,664.5C 168.74,661.421 168.407,658.421 167.5,655.5C 171.106,650.9 171.273,646.233 168,641.5C 167.304,630.197 169.97,629.531 176,639.5C 176.383,638.944 176.883,638.611 177.5,638.5 Z"/></g>
<g><path style="opacity:1" fill="#f2d24a" d="M 139.5,650.5 C 143.167,650.5 146.833,650.5 150.5,650.5C 151.833,653.833 154.167,656.167 157.5,657.5C 157.5,657.833 157.5,658.167 157.5,658.5C 155.243,658.038 153.243,657.038 151.5,655.5C 151.167,655.833 150.833,656.167 150.5,656.5C 151.488,659.45 152.321,662.45 153,665.5C 154.399,666.227 155.899,666.727 157.5,667C 156.906,667.464 156.239,667.631 155.5,667.5C 146.325,665.503 140.991,659.836 139.5,650.5 Z"/></g>
<g><path style="opacity:1" fill="#040510" d="M 778.5,677.5 C 776.712,678.622 774.712,678.789 772.5,678C 766.866,671.364 760.866,665.031 754.5,659C 651.833,658.333 549.167,658.333 446.5,659C 441.575,664.432 436.242,669.265 430.5,673.5C 435.685,667.815 441.019,662.315 446.5,657C 548.833,656.333 651.167,656.333 753.5,657C 760.833,663 767.5,669.667 773.5,677C 775.134,677.494 776.801,677.66 778.5,677.5 Z"/></g>
<g><path style="opacity:1" fill="#f94421" d="M 1050.5,668.5 C 1049.27,666.99 1049.27,665.49 1050.5,664C 1048.95,662.903 1047.61,661.57 1046.5,660C 1048.44,659.878 1049.77,659.045 1050.5,657.5C 1053.08,656.432 1055.24,654.765 1057,652.5C 1058.9,646.343 1057.07,642.01 1051.5,639.5C 1047.98,638.834 1044.31,638.167 1040.5,637.5C 1039.93,635.941 1039.26,634.441 1038.5,633C 1040.09,632.138 1041.75,631.471 1043.5,631C 1042.91,630.536 1042.24,630.369 1041.5,630.5C 1052.08,627.018 1060.58,630.018 1067,639.5C 1071.9,655.03 1066.4,664.697 1050.5,668.5 Z"/></g>
<g><path style="opacity:1" fill="#fbb95e" d="M 157.5,658.5 C 157.961,660.55 158.628,662.55 159.5,664.5C 159.212,665.861 158.879,667.194 158.5,668.5C 157.209,668.737 156.209,668.404 155.5,667.5C 156.239,667.631 156.906,667.464 157.5,667C 155.899,666.727 154.399,666.227 153,665.5C 152.321,662.45 151.488,659.45 150.5,656.5C 150.833,656.167 151.167,655.833 151.5,655.5C 153.243,657.038 155.243,658.038 157.5,658.5 Z"/></g>
<g><path style="opacity:1" fill="#131525" d="M 778.5,677.5 C 803.446,679.326 827.779,684.159 851.5,692C 862.149,695.652 869.983,702.486 875,712.5C 876.347,718.561 875.18,724.061 871.5,729C 866.833,729.667 862.167,729.667 857.5,729C 856.978,728.439 856.645,727.772 856.5,727C 857.651,725.177 858.818,723.344 860,721.5C 860.847,718.412 860.347,715.579 858.5,713C 848.061,706.517 836.727,702.184 824.5,700C 808.151,696.606 791.817,694.106 775.5,692.5C 777.527,692.662 779.527,692.495 781.5,692C 777.167,691.667 772.833,691.333 768.5,691C 655.5,690.5 542.5,690.333 429.5,690.5C 429.631,684.918 429.631,679.584 429.5,674.5C 429.5,673.833 429.833,673.5 430.5,673.5C 436.242,669.265 441.575,664.432 446.5,659C 549.167,658.333 651.833,658.333 754.5,659C 760.866,665.031 766.866,671.364 772.5,678C 774.712,678.789 776.712,678.622 778.5,677.5 Z"/></g>
<g><path style="opacity:1" fill="#e5a78f" d="M 157.5,657.5 C 159.5,657.5 161.5,657.5 163.5,657.5C 163.505,661.237 164.505,664.571 166.5,667.5C 163.946,668.388 161.279,668.721 158.5,668.5C 158.879,667.194 159.212,665.861 159.5,664.5C 158.628,662.55 157.961,660.55 157.5,658.5C 157.5,658.167 157.5,657.833 157.5,657.5 Z"/></g>
<g><path style="opacity:1" fill="#fb6f20" d="M 1045.5,657.5 C 1047.17,657.5 1048.83,657.5 1050.5,657.5C 1049.77,659.045 1048.44,659.878 1046.5,660C 1047.61,661.57 1048.95,662.903 1050.5,664C 1049.27,665.49 1049.27,666.99 1050.5,668.5C 1047.94,668.802 1045.61,668.468 1043.5,667.5C 1044.24,667.631 1044.91,667.464 1045.5,667C 1043.9,666.727 1042.4,666.227 1041,665.5C 1041.79,663.514 1041.29,661.681 1039.5,660C 1041.21,658.938 1041.87,657.771 1041.5,656.5C 1042.74,657.246 1044.07,657.579 1045.5,657.5 Z"/></g>
<g><path style="opacity:1" fill="#040405" d="M 429.5,674.5 C 429.631,679.584 429.631,684.918 429.5,690.5C 542.5,690.333 655.5,690.5 768.5,691C 772.833,691.333 777.167,691.667 781.5,692C 779.527,692.495 777.527,692.662 775.5,692.5C 659.507,691.528 543.507,691.195 427.5,691.5C 427.051,685.641 427.717,679.975 429.5,674.5 Z"/></g>
<g><path style="opacity:1" fill="#131317" d="M 102.5,492.5 C 102.938,492.435 103.272,492.601 103.5,493C 100.894,494.938 99.0608,497.438 98,500.5C 97.0112,562.891 97.3445,625.224 99,687.5C 100.961,690.135 103.461,691.969 106.5,693C 142.336,693.167 178.002,693.667 213.5,694.5C 178.238,695.659 142.905,695.826 107.5,695C 103.532,694.036 100.365,691.869 98,688.5C 96.3409,625.582 96.0076,562.582 97,499.5C 97.9354,496.405 99.7687,494.071 102.5,492.5 Z"/></g>
<g><path style="opacity:1" fill="#1b1b22" d="M 1183.5,237.5 C 1274.5,237.333 1365.5,237.5 1456.5,238C 1457,238.5 1457.5,239 1458,239.5C 1458.67,397.5 1458.67,555.5 1458,713.5C 1457.5,714 1457,714.5 1456.5,715C 1365.83,715.667 1275.17,715.667 1184.5,715C 1183.69,714.692 1183.03,714.192 1182.5,713.5C 1181.33,555.54 1181.17,397.54 1182,239.5C 1182.72,238.956 1183.22,238.289 1183.5,237.5 Z"/></g>
<g><path style="opacity:1" fill="#131525" d="M 1184.5,238.5 C 1275.07,238.168 1365.57,238.501 1456,239.5C 1456.5,397.5 1456.67,555.5 1456.5,713.5C 1365.5,713.5 1274.5,713.5 1183.5,713.5C 1183.17,555.097 1183.5,396.763 1184.5,238.5 Z"/></g>
<g><path style="opacity:1" fill="#25ebf9" d="M 1334.5,642.5 C 1343.17,642.334 1351.84,642.5 1360.5,643C 1354.83,649.333 1349.17,655.667 1343.5,662C 1348.5,662.333 1353.5,662.667 1358.5,663C 1345.33,670.421 1331.99,677.588 1318.5,684.5C 1318.17,684.333 1317.83,684.167 1317.5,684C 1323.17,677.667 1328.83,671.333 1334.5,665C 1328.47,664.83 1322.47,664.33 1316.5,663.5C 1322.52,656.48 1328.52,649.48 1334.5,642.5 Z"/></g>
<g><path style="opacity:1" fill="#131623" d="M 1309.5,542.5 C 1312.35,549.02 1316.68,554.353 1322.5,558.5C 1312.39,568.054 1300.39,572.221 1286.5,571C 1284.45,570.07 1282.95,568.57 1282,566.5C 1278.6,560.377 1275.77,554.044 1273.5,547.5C 1272.56,541.664 1271.56,535.83 1270.5,530C 1270.83,529.5 1271.17,529 1271.5,528.5C 1282.34,538.114 1295.01,542.781 1309.5,542.5 Z"/></g>
<g><path style="opacity:1" fill="#f901f8" d="M 1415.5,543.5 C 1407.91,581.251 1384.91,602.751 1346.5,608C 1311.08,609.549 1285.25,594.716 1269,563.5C 1267.86,560.904 1267.03,558.237 1266.5,555.5C 1266.43,555.062 1266.6,554.728 1267,554.5C 1267.33,555.167 1267.67,555.833 1268,556.5C 1269.58,554.959 1271.41,553.792 1273.5,553C 1272.19,551.057 1272.19,549.223 1273.5,547.5C 1275.77,554.044 1278.6,560.377 1282,566.5C 1282.95,568.57 1284.45,570.07 1286.5,571C 1300.39,572.221 1312.39,568.054 1322.5,558.5C 1325.35,558.552 1327.68,559.552 1329.5,561.5C 1322.77,573.381 1312.77,581.215 1299.5,585C 1307.86,592.23 1317.53,595.896 1328.5,596C 1338.01,586.47 1343.35,574.97 1344.5,561.5C 1347.55,561.032 1350.38,560.032 1353,558.5C 1353.9,558.743 1354.74,559.077 1355.5,559.5C 1357.23,573.586 1353.57,585.919 1344.5,596.5C 1355.35,596.834 1365.52,594.167 1375,588.5C 1378.49,576.723 1377.15,565.39 1371,554.5C 1368.93,552.604 1367.1,550.604 1365.5,548.5C 1367.45,545.594 1369.12,542.594 1370.5,539.5C 1382.84,547.485 1390.17,558.819 1392.5,573.5C 1396.92,568.996 1400.09,563.663 1402,557.5C 1404.29,550.66 1405.79,543.66 1406.5,536.5C 1407.22,536.082 1407.72,535.416 1408,534.5C 1408.49,535.793 1408.66,537.127 1408.5,538.5C 1409.83,538.5 1411.17,538.5 1412.5,538.5C 1412.35,539.552 1412.52,540.552 1413,541.5C 1413.67,542.833 1414.33,542.833 1415,541.5C 1415.46,542.094 1415.63,542.761 1415.5,543.5 Z"/></g>
<g><path style="opacity:1" fill="#131623" d="M 1329.5,561.5 C 1334.5,561.5 1339.5,561.5 1344.5,561.5C 1343.35,574.97 1338.01,586.47 1328.5,596C 1317.53,595.896 1307.86,592.23 1299.5,585C 1312.77,581.215 1322.77,573.381 1329.5,561.5 Z"/></g>
<g><path style="opacity:1" fill="#121623" d="M 1365.5,548.5 C 1367.1,550.604 1368.93,552.604 1371,554.5C 1377.15,565.39 1378.49,576.723 1375,588.5C 1365.52,594.167 1355.35,596.834 1344.5,596.5C 1353.57,585.919 1357.23,573.586 1355.5,559.5C 1358.75,555.905 1362.09,552.238 1365.5,548.5 Z"/></g>
<g><path style="opacity:1" fill="#121523" d="M 1369.5,517.5 C 1383.35,517.17 1395.18,521.837 1405,531.5C 1406.01,533.025 1406.51,534.692 1406.5,536.5C 1405.79,543.66 1404.29,550.66 1402,557.5C 1400.09,563.663 1396.92,568.996 1392.5,573.5C 1390.17,558.819 1382.84,547.485 1370.5,539.5C 1372.06,532.059 1371.73,524.725 1369.5,517.5 Z"/></g>
<g><path style="opacity:1" fill="#f71ef1" d="M 1278.5,495.5 C 1275.37,500.045 1274.21,505.045 1275,510.5C 1281.28,517.789 1288.45,523.956 1296.5,529C 1299.92,530.904 1303.59,531.737 1307.5,531.5C 1307.69,535.262 1308.36,538.929 1309.5,542.5C 1295.01,542.781 1282.34,538.114 1271.5,528.5C 1271.17,529 1270.83,529.5 1270.5,530C 1271.56,535.83 1272.56,541.664 1273.5,547.5C 1272.19,549.223 1272.19,551.057 1273.5,553C 1271.41,553.792 1269.58,554.959 1268,556.5C 1267.67,555.833 1267.33,555.167 1267,554.5C 1266.6,554.728 1266.43,555.062 1266.5,555.5C 1262.64,546.516 1260.97,537.016 1261.5,527C 1261.05,517.093 1262.72,507.593 1266.5,498.5C 1267.22,498.918 1267.72,499.584 1268,500.5C 1269.62,499.464 1269.78,498.297 1268.5,497C 1270.77,495.248 1272.77,493.248 1274.5,491C 1273.17,489.16 1273.33,488.66 1275,489.5C 1275.41,486.234 1276.91,485.901 1279.5,488.5C 1278.63,490.747 1278.29,493.08 1278.5,495.5 Z"/></g>
<g><path style="opacity:1" fill="#fa18e7" d="M 1410.5,495.5 C 1417.61,511.039 1419.28,527.039 1415.5,543.5C 1415.63,542.761 1415.46,542.094 1415,541.5C 1414.33,542.833 1413.67,542.833 1413,541.5C 1412.52,540.552 1412.35,539.552 1412.5,538.5C 1411.17,538.5 1409.83,538.5 1408.5,538.5C 1408.66,537.127 1408.49,535.793 1408,534.5C 1407.72,535.416 1407.22,536.082 1406.5,536.5C 1406.51,534.692 1406.01,533.025 1405,531.5C 1395.18,521.837 1383.35,517.17 1369.5,517.5C 1367.96,513.947 1365.96,510.614 1363.5,507.5C 1374.2,504.703 1384.87,504.87 1395.5,508C 1398.97,509.97 1402.3,512.136 1405.5,514.5C 1405.29,509.814 1403.95,505.147 1401.5,500.5C 1402.31,498.7 1401.81,497.033 1400,495.5C 1399.49,493.165 1400.16,491.165 1402,489.5C 1402.67,490.833 1403.33,490.833 1404,489.5C 1404.49,491.134 1404.66,492.801 1404.5,494.5C 1405.83,494.5 1407.17,494.5 1408.5,494.5C 1408.37,497.925 1409.03,498.258 1410.5,495.5 Z"/></g>
<g><path style="opacity:1" fill="#1792fa" d="M 1339.5,497.5 C 1342.54,497.508 1345.54,497.841 1348.5,498.5C 1353.96,500.732 1358.96,503.732 1363.5,507.5C 1365.96,510.614 1367.96,513.947 1369.5,517.5C 1371.73,524.725 1372.06,532.059 1370.5,539.5C 1369.12,542.594 1367.45,545.594 1365.5,548.5C 1362.09,552.238 1358.75,555.905 1355.5,559.5C 1354.74,559.077 1353.9,558.743 1353,558.5C 1350.38,560.032 1347.55,561.032 1344.5,561.5C 1339.5,561.5 1334.5,561.5 1329.5,561.5C 1327.68,559.552 1325.35,558.552 1322.5,558.5C 1316.68,554.353 1312.35,549.02 1309.5,542.5C 1308.36,538.929 1307.69,535.262 1307.5,531.5C 1307.35,524.64 1309.01,518.307 1312.5,512.5C 1315.24,510.761 1317.24,508.427 1318.5,505.5C 1321.44,503.689 1324.44,501.856 1327.5,500C 1331.31,498.228 1335.31,497.395 1339.5,497.5 Z"/></g>
<g><path style="opacity:1" fill="#131424" d="M 1332.5,507.5 C 1346.99,505.324 1356.83,510.991 1362,524.5C 1362.46,544.705 1352.63,553.872 1332.5,552C 1320.49,546.819 1315.66,537.652 1318,524.5C 1320.2,516.478 1325.03,510.811 1332.5,507.5 Z"/></g>
<g><path style="opacity:1" fill="#131523" d="M 1301.5,489.5 C 1302.25,498.665 1305.92,506.331 1312.5,512.5C 1309.01,518.307 1307.35,524.64 1307.5,531.5C 1303.59,531.737 1299.92,530.904 1296.5,529C 1288.45,523.956 1281.28,517.789 1275,510.5C 1274.21,505.045 1275.37,500.045 1278.5,495.5C 1284.04,486.285 1291.04,478.285 1299.5,471.5C 1300.36,477.489 1301.02,483.489 1301.5,489.5 Z"/></g>
<g><path style="opacity:1" fill="#f231f0" d="M 1313.5,476.5 C 1312.4,486.717 1314.07,496.384 1318.5,505.5C 1317.24,508.427 1315.24,510.761 1312.5,512.5C 1305.92,506.331 1302.25,498.665 1301.5,489.5C 1302.32,487.611 1303.16,485.611 1304,483.5C 1305.01,484.337 1306.18,484.67 1307.5,484.5C 1307.35,483.448 1307.52,482.448 1308,481.5C 1309,482.833 1310,484.167 1311,485.5C 1311.2,482.203 1312.04,479.203 1313.5,476.5 Z"/></g>
<g><path style="opacity:1" fill="#131523" d="M 1401.5,500.5 C 1403.95,505.147 1405.29,509.814 1405.5,514.5C 1402.3,512.136 1398.97,509.97 1395.5,508C 1384.87,504.87 1374.2,504.703 1363.5,507.5C 1358.96,503.732 1353.96,500.732 1348.5,498.5C 1353.01,489.16 1360.01,482.327 1369.5,478C 1373.33,476.5 1377.17,475 1381,473.5C 1385.32,476.488 1388.99,480.154 1392,484.5C 1395.43,489.742 1398.59,495.076 1401.5,500.5 Z"/></g>
<g><path style="opacity:1" fill="#f237ea" d="M 1381.5,462.5 C 1394.34,470.673 1404,481.673 1410.5,495.5C 1409.03,498.258 1408.37,497.925 1408.5,494.5C 1407.17,494.5 1405.83,494.5 1404.5,494.5C 1404.66,492.801 1404.49,491.134 1404,489.5C 1403.33,490.833 1402.67,490.833 1402,489.5C 1400.16,491.165 1399.49,493.165 1400,495.5C 1401.81,497.033 1402.31,498.7 1401.5,500.5C 1398.59,495.076 1395.43,489.742 1392,484.5C 1388.99,480.154 1385.32,476.488 1381,473.5C 1377.17,475 1373.33,476.5 1369.5,478C 1360.01,482.327 1353.01,489.16 1348.5,498.5C 1345.54,497.841 1342.54,497.508 1339.5,497.5C 1343.02,482.324 1351.69,471.324 1365.5,464.5C 1367.91,463.206 1370.07,461.539 1372,459.5C 1373.59,460.716 1375.09,462.049 1376.5,463.5C 1377.91,462.332 1379.07,462.665 1380,464.5C 1380.28,463.584 1380.78,462.918 1381.5,462.5 Z"/></g>
<g><path style="opacity:1" fill="#de4df1" d="M 1381.5,462.5 C 1380.78,462.918 1380.28,463.584 1380,464.5C 1379.07,462.665 1377.91,462.332 1376.5,463.5C 1375.09,462.049 1373.59,460.716 1372,459.5C 1370.07,461.539 1367.91,463.206 1365.5,464.5C 1352.19,459.501 1338.53,458.334 1324.5,461C 1321.46,461.353 1318.79,462.52 1316.5,464.5C 1314.99,468.378 1313.99,472.378 1313.5,476.5C 1312.04,479.203 1311.2,482.203 1311,485.5C 1310,484.167 1309,482.833 1308,481.5C 1307.52,482.448 1307.35,483.448 1307.5,484.5C 1306.18,484.67 1305.01,484.337 1304,483.5C 1303.16,485.611 1302.32,487.611 1301.5,489.5C 1301.02,483.489 1300.36,477.489 1299.5,471.5C 1291.04,478.285 1284.04,486.285 1278.5,495.5C 1278.29,493.08 1278.63,490.747 1279.5,488.5C 1276.91,485.901 1275.41,486.234 1275,489.5C 1273.33,488.66 1273.17,489.16 1274.5,491C 1272.77,493.248 1270.77,495.248 1268.5,497C 1269.78,498.297 1269.62,499.464 1268,500.5C 1267.72,499.584 1267.22,498.918 1266.5,498.5C 1280.64,467.55 1304.81,451.55 1339,450.5C 1354.62,449.768 1368.79,453.768 1381.5,462.5 Z"/></g>
<g><path style="opacity:1" fill="#131423" d="M 1365.5,464.5 C 1351.69,471.324 1343.02,482.324 1339.5,497.5C 1335.31,497.395 1331.31,498.228 1327.5,500C 1324.44,501.856 1321.44,503.689 1318.5,505.5C 1314.07,496.384 1312.4,486.717 1313.5,476.5C 1313.99,472.378 1314.99,468.378 1316.5,464.5C 1318.79,462.52 1321.46,461.353 1324.5,461C 1338.53,458.334 1352.19,459.501 1365.5,464.5 Z"/></g>
<g><path style="opacity:1" fill="#5bb1f2" d="M 1225.5,431.5 C 1233,430.804 1235,433.637 1231.5,440C 1224.19,440.871 1222.19,438.038 1225.5,431.5 Z"/></g>
<g><path style="opacity:1" fill="#ba66fa" d="M 1416.5,370.5 C 1411.21,408.291 1389.88,431.124 1352.5,439C 1307.43,443.391 1277.76,424.224 1263.5,381.5C 1263.51,376.327 1263.84,370.993 1264.5,365.5C 1265.48,365.023 1266.31,364.357 1267,363.5C 1267.33,363.833 1267.67,364.167 1268,364.5C 1268.33,363.167 1268.67,361.833 1269,360.5C 1269.78,365.5 1270.11,370.5 1270,375.5C 1269.26,376.641 1268.43,376.641 1267.5,375.5C 1266.5,375.833 1265.83,376.5 1265.5,377.5C 1267.22,377.746 1269.22,377.746 1271.5,377.5C 1273.25,386.013 1276.42,394.013 1281,401.5C 1282.17,402.893 1283.67,403.727 1285.5,404C 1294.78,404.754 1303.45,402.754 1311.5,398C 1315.06,394.927 1318.73,392.094 1322.5,389.5C 1324.82,389.992 1326.82,390.992 1328.5,392.5C 1320.61,404.562 1309.61,412.062 1295.5,415C 1303.01,422.007 1311.85,426.507 1322,428.5C 1324.03,428.142 1325.87,427.308 1327.5,426C 1336.72,417.057 1342.39,406.223 1344.5,393.5C 1347.94,392.808 1351.27,391.808 1354.5,390.5C 1355.85,405.611 1351.52,418.778 1341.5,430C 1353.6,430.08 1364.93,427.08 1375.5,421C 1377.94,408.865 1376.11,397.365 1370,386.5C 1368.95,384.382 1367.45,382.716 1365.5,381.5C 1366.45,378.294 1367.79,375.294 1369.5,372.5C 1375.76,375.596 1380.6,380.263 1384,386.5C 1387.51,393.179 1390.17,400.179 1392,407.5C 1402.24,394.465 1406.57,379.798 1405,363.5C 1394.86,353.685 1382.7,348.685 1368.5,348.5C 1367.83,348.5 1367.5,348.167 1367.5,347.5C 1365.83,344.833 1364.17,342.167 1362.5,339.5C 1378.61,334.866 1393.27,337.533 1406.5,347.5C 1407.31,342.366 1406.31,337.366 1403.5,332.5C 1404.73,329.956 1405.9,329.956 1407,332.5C 1408.33,328.5 1409.67,328.5 1411,332.5C 1414.55,345.042 1416.38,357.709 1416.5,370.5 Z"/></g>
<g><path style="opacity:1" fill="#63abf7" d="M 1226.5,403.5 C 1233.3,404.107 1234.96,407.274 1231.5,413C 1223.35,413.198 1221.68,410.031 1226.5,403.5 Z"/></g>
<g><path style="opacity:1" fill="#121423" d="M 1328.5,392.5 C 1333.77,393.4 1339.11,393.733 1344.5,393.5C 1342.39,406.223 1336.72,417.057 1327.5,426C 1325.87,427.308 1324.03,428.142 1322,428.5C 1311.85,426.507 1303.01,422.007 1295.5,415C 1309.61,412.062 1320.61,404.562 1328.5,392.5 Z"/></g>
<g><path style="opacity:1" fill="#131423" d="M 1365.5,381.5 C 1367.45,382.716 1368.95,384.382 1370,386.5C 1376.11,397.365 1377.94,408.865 1375.5,421C 1364.93,427.08 1353.6,430.08 1341.5,430C 1351.52,418.778 1355.85,405.611 1354.5,390.5C 1358.43,387.908 1362.1,384.908 1365.5,381.5 Z"/></g>
<g><path style="opacity:1" fill="#131423" d="M 1280.5,364.5 C 1288.85,371.281 1298.52,374.281 1309.5,373.5C 1309.83,373.5 1310.17,373.5 1310.5,373.5C 1310.26,374.791 1310.6,375.791 1311.5,376.5C 1313.37,381.043 1316.37,384.71 1320.5,387.5C 1310.87,398.976 1298.53,403.81 1283.5,402C 1274.74,388.464 1270.57,373.631 1271,357.5C 1273.78,360.462 1276.95,362.796 1280.5,364.5 Z"/></g>
<g><path style="opacity:1" fill="#54daf9" d="M 1367.5,347.5 C 1367.5,348.167 1367.83,348.5 1368.5,348.5C 1370.67,356.413 1371.01,364.413 1369.5,372.5C 1367.79,375.294 1366.45,378.294 1365.5,381.5C 1362.1,384.908 1358.43,387.908 1354.5,390.5C 1351.27,391.808 1347.94,392.808 1344.5,393.5C 1339.11,393.733 1333.77,393.4 1328.5,392.5C 1326.82,390.992 1324.82,389.992 1322.5,389.5C 1322.17,388.5 1321.5,387.833 1320.5,387.5C 1316.37,384.71 1313.37,381.043 1311.5,376.5C 1313.73,379.251 1316.57,382.251 1320,385.5C 1321.64,381.722 1322.81,381.722 1323.5,385.5C 1325.86,385.663 1328.19,385.497 1330.5,385C 1329.17,384.333 1327.83,383.667 1326.5,383C 1325.26,382.31 1325.26,381.81 1326.5,381.5C 1343.4,388.97 1354.9,383.97 1361,366.5C 1361.57,361.397 1361.07,356.397 1359.5,351.5C 1361.6,352.385 1363.93,352.385 1366.5,351.5C 1366.23,349.901 1366.57,348.568 1367.5,347.5 Z"/></g>
<g><path style="opacity:1" fill="#56cffb" d="M 1317.5,365.5 C 1318.46,372.099 1321.46,377.433 1326.5,381.5C 1325.26,381.81 1325.26,382.31 1326.5,383C 1327.83,383.667 1329.17,384.333 1330.5,385C 1328.19,385.497 1325.86,385.663 1323.5,385.5C 1322.81,381.722 1321.64,381.722 1320,385.5C 1316.57,382.251 1313.73,379.251 1311.5,376.5C 1310.6,375.791 1310.26,374.791 1310.5,373.5C 1310.43,373.062 1310.6,372.728 1311,372.5C 1311.33,373.167 1311.67,373.833 1312,374.5C 1313.1,372.606 1314.43,371.939 1316,372.5C 1315.71,367.856 1315.71,363.189 1316,358.5C 1316.19,361.036 1316.69,363.369 1317.5,365.5 Z"/></g>
<g><path style="opacity:1" fill="#f9d10a" d="M 1223.5,381.5 C 1225.04,380.837 1226.71,380.17 1228.5,379.5C 1227.96,378.252 1227.29,377.085 1226.5,376C 1227.63,374.984 1227.3,374.317 1225.5,374C 1226.17,373.667 1226.83,373.333 1227.5,373C 1223.41,371.667 1221.07,368.833 1220.5,364.5C 1222.12,360.203 1223.78,356.369 1225.5,353C 1224.36,352.259 1224.36,351.425 1225.5,350.5C 1224.76,349.818 1224.09,349.151 1223.5,348.5C 1236.92,345.208 1244.59,350.375 1246.5,364C 1244.96,378.058 1237.29,383.892 1223.5,381.5 Z"/></g>
<g><path style="opacity:1" fill="#fbaa0b" d="M 1223.5,348.5 C 1224.09,349.151 1224.76,349.818 1225.5,350.5C 1224.36,351.425 1224.36,352.259 1225.5,353C 1223.78,356.369 1222.12,360.203 1220.5,364.5C 1221.07,368.833 1223.41,371.667 1227.5,373C 1226.83,373.333 1226.17,373.667 1225.5,374C 1227.3,374.317 1227.63,374.984 1226.5,376C 1227.29,377.085 1227.96,378.252 1228.5,379.5C 1226.71,380.17 1225.04,380.837 1223.5,381.5C 1211.74,375.386 1208.91,366.386 1215,354.5C 1217.18,351.477 1220.01,349.477 1223.5,348.5 Z"/></g>
<g><path style="opacity:1" fill="#5fb5f9" d="M 1313.5,343.5 C 1314.05,344.823 1313.55,346.156 1312,347.5C 1310.68,350.77 1310.01,354.103 1310,357.5C 1310.33,356.833 1310.67,356.167 1311,355.5C 1311.42,356.956 1312.26,357.456 1313.5,357C 1315.03,354.971 1316.7,353.138 1318.5,351.5C 1317.69,356.119 1317.35,360.786 1317.5,365.5C 1316.69,363.369 1316.19,361.036 1316,358.5C 1315.71,363.189 1315.71,367.856 1316,372.5C 1314.43,371.939 1313.1,372.606 1312,374.5C 1311.67,373.833 1311.33,373.167 1311,372.5C 1310.6,372.728 1310.43,373.062 1310.5,373.5C 1310.17,373.5 1309.83,373.5 1309.5,373.5C 1309.21,370.061 1308.55,366.728 1307.5,363.5C 1306.51,355.818 1308.51,349.151 1313.5,343.5 Z"/></g>
<g><path style="opacity:1" fill="#131423" d="M 1368.5,348.5 C 1382.7,348.685 1394.86,353.685 1405,363.5C 1406.57,379.798 1402.24,394.465 1392,407.5C 1390.17,400.179 1387.51,393.179 1384,386.5C 1380.6,380.263 1375.76,375.596 1369.5,372.5C 1371.01,364.413 1370.67,356.413 1368.5,348.5 Z"/></g>
<g><path style="opacity:1" fill="#121327" d="M 1227.5,357.5 C 1234.43,357.999 1236.93,361.666 1235,368.5C 1230.52,372.731 1226.52,372.398 1223,367.5C 1221.57,362.783 1223.07,359.45 1227.5,357.5 Z"/></g>
<g><path style="opacity:1" fill="#cf6ef7" d="M 1416.5,370.5 C 1416.38,357.709 1414.55,345.042 1411,332.5C 1409.67,328.5 1408.33,328.5 1407,332.5C 1405.9,329.956 1404.73,329.956 1403.5,332.5C 1406.31,337.366 1407.31,342.366 1406.5,347.5C 1403.12,330.306 1394.62,316.306 1381,305.5C 1366.47,309.211 1355.64,317.544 1348.5,330.5C 1347.5,330.5 1346.5,330.5 1345.5,330.5C 1343.74,329.539 1341.74,329.205 1339.5,329.5C 1341.23,322.696 1344.07,316.363 1348,310.5C 1353.19,304.832 1359.02,299.998 1365.5,296C 1350.05,290.915 1334.38,290.248 1318.5,294C 1314.52,308.16 1314.52,322.327 1318.5,336.5C 1316.83,338.5 1315.17,340.5 1313.5,342.5C 1308.29,338.095 1305.13,332.428 1304,325.5C 1303.02,317.858 1302.19,310.191 1301.5,302.5C 1289.61,310.564 1280.78,321.23 1275,334.5C 1274.29,336.971 1274.63,339.305 1276,341.5C 1283.09,352.101 1292.59,359.435 1304.5,363.5C 1304.26,364.097 1303.76,364.43 1303,364.5C 1297.15,362.157 1291.65,359.157 1286.5,355.5C 1282.15,350.982 1277.98,346.316 1274,341.5C 1272.87,339.655 1272.37,337.655 1272.5,335.5C 1269.53,335.17 1267.36,336.17 1266,338.5C 1264.85,341.755 1264.02,345.088 1263.5,348.5C 1263.71,349.994 1264.38,351.161 1265.5,352C 1265.17,352.333 1264.83,352.667 1264.5,353C 1265.78,353.684 1266.95,353.517 1268,352.5C 1268.69,353.025 1269.19,353.692 1269.5,354.5C 1268.67,355.451 1268.51,356.451 1269,357.5C 1270.05,356.483 1271.22,356.316 1272.5,357C 1275.43,359.285 1278.1,361.785 1280.5,364.5C 1276.95,362.796 1273.78,360.462 1271,357.5C 1270.57,373.631 1274.74,388.464 1283.5,402C 1298.53,403.81 1310.87,398.976 1320.5,387.5C 1321.5,387.833 1322.17,388.5 1322.5,389.5C 1318.73,392.094 1315.06,394.927 1311.5,398C 1303.45,402.754 1294.78,404.754 1285.5,404C 1283.67,403.727 1282.17,402.893 1281,401.5C 1276.42,394.013 1273.25,386.013 1271.5,377.5C 1269.22,377.746 1267.22,377.746 1265.5,377.5C 1265.83,376.5 1266.5,375.833 1267.5,375.5C 1268.43,376.641 1269.26,376.641 1270,375.5C 1270.11,370.5 1269.78,365.5 1269,360.5C 1268.67,361.833 1268.33,363.167 1268,364.5C 1267.67,364.167 1267.33,363.833 1267,363.5C 1266.31,364.357 1265.48,365.023 1264.5,365.5C 1263.84,370.993 1263.51,376.327 1263.5,381.5C 1255.46,343.44 1267.46,313.607 1299.5,292C 1340.8,272.001 1375.63,279.835 1404,315.5C 1414.85,332.252 1419.02,350.585 1416.5,370.5 Z"/></g>
<g><path style="opacity:1" fill="#bc6afb" d="M 1304.5,363.5 C 1305.5,363.5 1306.5,363.5 1307.5,363.5C 1308.55,366.728 1309.21,370.061 1309.5,373.5C 1298.52,374.281 1288.85,371.281 1280.5,364.5C 1278.1,361.785 1275.43,359.285 1272.5,357C 1271.22,356.316 1270.05,356.483 1269,357.5C 1268.51,356.451 1268.67,355.451 1269.5,354.5C 1269.19,353.692 1268.69,353.025 1268,352.5C 1266.95,353.517 1265.78,353.684 1264.5,353C 1264.83,352.667 1265.17,352.333 1265.5,352C 1264.38,351.161 1263.71,349.994 1263.5,348.5C 1264.02,345.088 1264.85,341.755 1266,338.5C 1267.36,336.17 1269.53,335.17 1272.5,335.5C 1272.37,337.655 1272.87,339.655 1274,341.5C 1277.98,346.316 1282.15,350.982 1286.5,355.5C 1291.65,359.157 1297.15,362.157 1303,364.5C 1303.76,364.43 1304.26,364.097 1304.5,363.5 Z"/></g>
<g><path style="opacity:1" fill="#131524" d="M 1359.5,351.5 C 1361.07,356.397 1361.57,361.397 1361,366.5C 1354.9,383.97 1343.4,388.97 1326.5,381.5C 1321.46,377.433 1318.46,372.099 1317.5,365.5C 1317.35,360.786 1317.69,356.119 1318.5,351.5C 1326.91,338.928 1337.91,336.095 1351.5,343C 1354.4,345.729 1357.07,348.562 1359.5,351.5 Z"/></g>
<g><path style="opacity:1" fill="#66aef7" d="M 1345.5,330.5 C 1346.5,330.5 1347.5,330.5 1348.5,330.5C 1354.15,331.992 1358.82,334.992 1362.5,339.5C 1364.17,342.167 1365.83,344.833 1367.5,347.5C 1366.57,348.568 1366.23,349.901 1366.5,351.5C 1363.93,352.385 1361.6,352.385 1359.5,351.5C 1357.07,348.562 1354.4,345.729 1351.5,343C 1337.91,336.095 1326.91,338.928 1318.5,351.5C 1319.45,346.711 1322.12,343.211 1326.5,341C 1333.78,338.614 1341.12,336.614 1348.5,335C 1347.53,333.796 1346.53,333.296 1345.5,333.5C 1347.69,331.618 1347.03,331.118 1343.5,332C 1344.7,332.654 1344.7,333.154 1343.5,333.5C 1342.33,333.081 1341.33,332.415 1340.5,331.5C 1342.05,330.548 1343.71,330.215 1345.5,330.5 Z"/></g>
<g><path style="opacity:1" fill="#68a0fa" d="M 1339.5,329.5 C 1341.74,329.205 1343.74,329.539 1345.5,330.5C 1343.71,330.215 1342.05,330.548 1340.5,331.5C 1341.33,332.415 1342.33,333.081 1343.5,333.5C 1344.7,333.154 1344.7,332.654 1343.5,332C 1347.03,331.118 1347.69,331.618 1345.5,333.5C 1346.53,333.296 1347.53,333.796 1348.5,335C 1341.12,336.614 1333.78,338.614 1326.5,341C 1322.12,343.211 1319.45,346.711 1318.5,351.5C 1316.7,353.138 1315.03,354.971 1313.5,357C 1312.26,357.456 1311.42,356.956 1311,355.5C 1310.67,356.167 1310.33,356.833 1310,357.5C 1310.01,354.103 1310.68,350.77 1312,347.5C 1313.55,346.156 1314.05,344.823 1313.5,343.5C 1313.5,343.167 1313.5,342.833 1313.5,342.5C 1315.17,340.5 1316.83,338.5 1318.5,336.5C 1322.11,334.693 1325.78,332.86 1329.5,331C 1332.73,329.801 1336.06,329.301 1339.5,329.5 Z"/></g>
<g><path style="opacity:1" fill="#131423" d="M 1313.5,342.5 C 1313.5,342.833 1313.5,343.167 1313.5,343.5C 1308.51,349.151 1306.51,355.818 1307.5,363.5C 1306.5,363.5 1305.5,363.5 1304.5,363.5C 1292.59,359.435 1283.09,352.101 1276,341.5C 1274.63,339.305 1274.29,336.971 1275,334.5C 1280.78,321.23 1289.61,310.564 1301.5,302.5C 1302.19,310.191 1303.02,317.858 1304,325.5C 1305.13,332.428 1308.29,338.095 1313.5,342.5 Z"/></g>
<g><path style="opacity:1" fill="#131424" d="M 1406.5,347.5 C 1393.27,337.533 1378.61,334.866 1362.5,339.5C 1358.82,334.992 1354.15,331.992 1348.5,330.5C 1355.64,317.544 1366.47,309.211 1381,305.5C 1394.62,316.306 1403.12,330.306 1406.5,347.5 Z"/></g>
<g><path style="opacity:1" fill="#f9d109" d="M 1215.5,312.5 C 1215.43,312.062 1215.6,311.728 1216,311.5C 1219.23,315.878 1223.4,317.544 1228.5,316.5C 1228.86,314.267 1229.86,312.434 1231.5,311C 1227.61,310.973 1224.45,309.473 1222,306.5C 1221.26,305.251 1221.43,304.251 1222.5,303.5C 1224.21,308.183 1227.54,309.683 1232.5,308C 1236.07,304.476 1236.41,300.642 1233.5,296.5C 1230.54,293.981 1227.54,293.981 1224.5,296.5C 1225.19,293.508 1225.53,290.341 1225.5,287C 1217.92,288.598 1213.75,293.431 1213,301.5C 1212.51,300.207 1212.34,298.873 1212.5,297.5C 1217.33,284.927 1226,281.427 1238.5,287C 1246.76,293.698 1248.6,301.864 1244,311.5C 1238.88,318.644 1232.04,321.144 1223.5,319C 1220.06,317.726 1217.4,315.559 1215.5,312.5 Z"/></g>
<g><path style="opacity:1" fill="#131423" d="M 1339.5,329.5 C 1336.06,329.301 1332.73,329.801 1329.5,331C 1325.78,332.86 1322.11,334.693 1318.5,336.5C 1314.52,322.327 1314.52,308.16 1318.5,294C 1334.38,290.248 1350.05,290.915 1365.5,296C 1359.02,299.998 1353.19,304.832 1348,310.5C 1344.07,316.363 1341.23,322.696 1339.5,329.5 Z"/></g>
<g><path style="opacity:1" fill="#131426" d="M 1222.5,303.5 C 1222.17,300.812 1222.83,298.479 1224.5,296.5C 1227.54,293.981 1230.54,293.981 1233.5,296.5C 1236.41,300.642 1236.07,304.476 1232.5,308C 1227.54,309.683 1224.21,308.183 1222.5,303.5 Z"/></g>
<g><path style="opacity:1" fill="#faae0a" d="M 1224.5,296.5 C 1222.83,298.479 1222.17,300.812 1222.5,303.5C 1221.43,304.251 1221.26,305.251 1222,306.5C 1224.45,309.473 1227.61,310.973 1231.5,311C 1229.86,312.434 1228.86,314.267 1228.5,316.5C 1223.4,317.544 1219.23,315.878 1216,311.5C 1215.6,311.728 1215.43,312.062 1215.5,312.5C 1213.59,311.025 1212.42,309.025 1212,306.5C 1211.2,303.304 1211.36,300.304 1212.5,297.5C 1212.34,298.873 1212.51,300.207 1213,301.5C 1213.75,293.431 1217.92,288.598 1225.5,287C 1225.53,290.341 1225.19,293.508 1224.5,296.5 Z"/></g>
<g><path style="opacity:1" fill="#3ae1f6" d="M 1416.5,284.5 C 1421.37,284.533 1423.54,286.866 1423,291.5C 1418.95,296.057 1414.45,300.057 1409.5,303.5C 1405.68,302.533 1404.18,300.199 1405,296.5C 1408.36,291.971 1412.2,287.971 1416.5,284.5 Z"/></g>
<g><path style="opacity:1" fill="#6b6c75" d="M 727.5,738.5 C 719.167,739.167 710.833,739.833 702.5,740.5C 701.957,740.44 701.624,740.107 701.5,739.5C 710.141,738.502 718.808,738.169 727.5,738.5 Z"/></g>
<g><path style="opacity:1" fill="#11121f" d="M 267.5,738.5 C 276.839,738.334 286.173,738.5 295.5,739C 297.256,739.202 298.922,739.702 300.5,740.5C 299.654,743.548 298.654,746.548 297.5,749.5C 285.5,750.833 273.5,750.833 261.5,749.5C 263.766,745.966 265.766,742.3 267.5,738.5 Z"/></g>
<g><path style="opacity:1" fill="#171825" d="M 832.5,737.5 C 842.172,737.993 851.838,738.66 861.5,739.5C 863.632,742.896 864.965,746.563 865.5,750.5C 855.753,750.92 846.086,750.42 836.5,749C 834.07,745.544 832.737,741.71 832.5,737.5 Z"/></g>
<g><path style="opacity:1" fill="#141623" d="M 659.5,738.5 C 670.167,738.5 680.833,738.5 691.5,738.5C 692.038,742.524 692.705,746.524 693.5,750.5C 682.5,750.5 671.5,750.5 660.5,750.5C 660.495,746.466 660.162,742.466 659.5,738.5 Z"/></g>
<g><path style="opacity:1" fill="#111220" d="M 727.5,738.5 C 729.833,738.5 732.167,738.5 734.5,738.5C 735.404,742.375 736.404,746.208 737.5,750C 726.172,750.5 714.838,750.667 703.5,750.5C 703.167,747.167 702.833,743.833 702.5,740.5C 710.833,739.833 719.167,739.167 727.5,738.5 Z"/></g>
<g><path style="opacity:1" fill="#121321" d="M 745.5,738.5 C 756.833,738.5 768.167,738.5 779.5,738.5C 780.292,742.211 781.292,745.878 782.5,749.5C 770.852,750.499 759.186,750.832 747.5,750.5C 746.833,746.5 746.167,742.5 745.5,738.5 Z"/></g>
<g><path style="opacity:1" fill="#11121f" d="M 789.5,739.5 C 799.992,738.341 810.659,738.175 821.5,739C 823.53,742.589 824.863,746.422 825.5,750.5C 814.5,750.5 803.5,750.5 792.5,750.5C 791.945,746.603 790.945,742.937 789.5,739.5 Z"/></g>
<g><path style="opacity:1" fill="#11111f" d="M 444.5,738.5 C 455.187,738.168 465.854,738.501 476.5,739.5C 475.648,743.131 474.981,746.798 474.5,750.5C 463.5,750.5 452.5,750.5 441.5,750.5C 441.566,746.235 442.566,742.235 444.5,738.5 Z"/></g>
<g><path style="opacity:1" fill="#121321" d="M 530.5,738.5 C 541.5,738.5 552.5,738.5 563.5,738.5C 563.793,742.437 563.46,746.27 562.5,750C 551.833,750.667 541.167,750.667 530.5,750C 529.271,746.2 529.271,742.367 530.5,738.5 Z"/></g>
<g><path style="opacity:1" fill="#141522" d="M 873.5,738.5 C 880.841,738.334 888.174,738.5 895.5,739C 897.235,742.467 899.235,745.8 901.5,749C 898.759,749.977 895.925,750.477 893,750.5C 887.83,750.033 882.663,749.533 877.5,749C 874.89,746.005 873.557,742.505 873.5,738.5 Z"/></g>
<g><path style="opacity:1" fill="#131420" d="M 487.5,738.5 C 497.833,738.5 508.167,738.5 518.5,738.5C 518.793,742.437 518.46,746.27 517.5,750C 507.172,750.5 496.839,750.666 486.5,750.5C 486.237,746.4 486.57,742.4 487.5,738.5 Z"/></g>
<g><path style="opacity:1" fill="#121220" d="M 399.5,739.5 C 410.52,739.168 421.52,739.501 432.5,740.5C 431.449,743.757 430.782,747.09 430.5,750.5C 419.147,750.832 407.814,750.499 396.5,749.5C 397.813,746.246 398.813,742.912 399.5,739.5 Z"/></g>
<g><path style="opacity:1" fill="#11111f" d="M 358.5,738.5 C 368.5,738.5 378.5,738.5 388.5,738.5C 388.007,742.476 387.007,746.31 385.5,750C 375.506,750.5 365.506,750.666 355.5,750.5C 355.686,746.279 356.686,742.279 358.5,738.5 Z"/></g>
<g><path style="opacity:1" fill="#131420" d="M 1061.5,742.5 C 1067.21,741.69 1072.21,743.19 1076.5,747C 1080.77,751.041 1084.43,755.541 1087.5,760.5C 1085.28,761.806 1082.95,762.306 1080.5,762C 1073.51,756.506 1066.18,751.506 1058.5,747C 1059.39,745.385 1060.39,743.885 1061.5,742.5 Z"/></g>
<g><path style="opacity:1" fill="#0e0f1a" d="M 313.5,738.5 C 324.167,738.5 334.833,738.5 345.5,738.5C 345.117,742.319 344.117,745.986 342.5,749.5C 331.52,750.499 320.52,750.832 309.5,750.5C 309.837,746.155 311.171,742.155 313.5,738.5 Z"/></g>
<g><path style="opacity:1" fill="#0f0f1b" d="M 616.5,738.5 C 627.167,738.5 637.833,738.5 648.5,738.5C 648.642,742.545 648.642,746.379 648.5,750C 638.172,750.5 627.839,750.666 617.5,750.5C 616.838,746.534 616.505,742.534 616.5,738.5 Z"/></g>
<g><path style="opacity:1" fill="#11121d" d="M 573.5,738.5 C 584.172,738.333 594.839,738.5 605.5,739C 606.833,742.667 606.833,746.333 605.5,750C 594.839,750.5 584.172,750.667 573.5,750.5C 573.5,746.5 573.5,742.5 573.5,738.5 Z"/></g>
<g><path style="opacity:1" fill="#11121f" d="M 421.5,757.5 C 432.167,757.5 442.833,757.5 453.5,757.5C 452.833,761.833 452.167,766.167 451.5,770.5C 440.5,770.5 429.5,770.5 418.5,770.5C 419.033,766.035 420.033,761.702 421.5,757.5 Z"/></g>
<g><path style="opacity:1" fill="#121321" d="M 596.5,757.5 C 607.167,757.5 617.833,757.5 628.5,757.5C 628.586,761.857 628.92,766.19 629.5,770.5C 618.5,770.5 607.5,770.5 596.5,770.5C 596.5,766.167 596.5,761.833 596.5,757.5 Z"/></g>
<g><path style="opacity:1" fill="#131525" d="M 728.5,766.5 C 727.662,766.158 727.328,765.492 727.5,764.5C 728.461,762.735 728.795,760.735 728.5,758.5C 746.836,758.333 765.17,758.5 783.5,759C 785.042,762.334 786.042,765.834 786.5,769.5C 767.5,769.5 748.5,769.5 729.5,769.5C 729.84,767.452 729.507,766.452 728.5,766.5 Z"/></g>
<g><path style="opacity:1" fill="#131423" d="M 1088.5,747.5 C 1122.57,753.058 1144.73,772.391 1155,805.5C 1156.31,808.503 1156.48,811.503 1155.5,814.5C 1142.4,825.226 1127.4,829.06 1110.5,826C 1087.92,821.545 1068.26,811.545 1051.5,796C 1040.8,785.637 1030.47,774.971 1020.5,764C 1027.94,758.716 1036.28,755.716 1045.5,755C 1049.83,754.333 1054.17,754.333 1058.5,755C 1065.72,758.888 1072.39,763.555 1078.5,769C 1085.28,768.527 1091.94,767.194 1098.5,765C 1099.02,764.439 1099.36,763.772 1099.5,763C 1096.19,757.528 1092.52,752.362 1088.5,747.5 Z"/></g>
<g><path style="opacity:1" fill="#111220" d="M 257.5,757.5 C 277.178,757.167 296.845,757.5 316.5,758.5C 315.059,762.323 313.726,766.157 312.5,770C 292.158,770.833 271.825,770.666 251.5,769.5C 253.513,765.473 255.513,761.473 257.5,757.5 Z"/></g>
<g><path style="opacity:1" fill="#11121f" d="M 328.5,757.5 C 339.5,757.5 350.5,757.5 361.5,757.5C 360.704,761.853 359.371,766.02 357.5,770C 346.485,770.832 335.485,770.666 324.5,769.5C 325.851,765.475 327.184,761.475 328.5,757.5 Z"/></g>
<g><path style="opacity:1" fill="#11121f" d="M 374.5,757.5 C 385.5,757.5 396.5,757.5 407.5,757.5C 407.196,761.855 406.196,766.021 404.5,770C 393.505,770.5 382.505,770.667 371.5,770.5C 371.606,765.957 372.606,761.624 374.5,757.5 Z"/></g>
<g><path style="opacity:1" fill="#121320" d="M 510.5,757.5 C 521.5,757.5 532.5,757.5 543.5,757.5C 543.414,761.857 543.08,766.19 542.5,770.5C 531.5,770.5 520.5,770.5 509.5,770.5C 509.927,766.176 510.261,761.842 510.5,757.5 Z"/></g>
<g><path style="opacity:1" fill="#11121f" d="M 553.5,757.5 C 564.167,757.5 574.833,757.5 585.5,757.5C 585.5,761.833 585.5,766.167 585.5,770.5C 574.833,770.5 564.167,770.5 553.5,770.5C 553.5,766.167 553.5,761.833 553.5,757.5 Z"/></g>
<g><path style="opacity:1" fill="#121321" d="M 639.5,757.5 C 650.172,757.333 660.839,757.5 671.5,758C 672.449,762.086 673.116,766.253 673.5,770.5C 662.5,770.5 651.5,770.5 640.5,770.5C 640.628,766.119 640.295,761.785 639.5,757.5 Z"/></g>
<g><path style="opacity:1" fill="#121321" d="M 683.5,757.5 C 694.167,757.5 704.833,757.5 715.5,757.5C 715.888,761.552 716.555,765.552 717.5,769.5C 706.52,770.499 695.52,770.832 684.5,770.5C 683.705,766.215 683.372,761.881 683.5,757.5 Z"/></g>
<g><path style="opacity:1" fill="#161825" d="M 841.5,756.5 C 850.506,756.334 859.506,756.5 868.5,757C 871.564,761.027 873.564,765.527 874.5,770.5C 864.478,770.832 854.478,770.499 844.5,769.5C 843.164,766.162 841.83,762.828 840.5,759.5C 840.685,758.416 841.018,757.416 841.5,756.5 Z"/></g>
<g><path style="opacity:1" fill="#161724" d="M 880.5,756.5 C 888.84,756.334 897.173,756.5 905.5,757C 908.564,761.027 910.564,765.527 911.5,770.5C 903.16,770.666 894.827,770.5 886.5,770C 883.819,765.785 881.819,761.285 880.5,756.5 Z"/></g>
<g><path style="opacity:1" fill="#131422" d="M 465.5,757.5 C 476.527,757.287 487.527,757.62 498.5,758.5C 498.354,762.519 498.021,766.519 497.5,770.5C 486.167,770.5 474.833,770.5 463.5,770.5C 463.054,765.929 463.72,761.596 465.5,757.5 Z"/></g>
<g><path style="opacity:1" fill="#171825" d="M 796.5,757.5 C 807.172,757.333 817.839,757.5 828.5,758C 830.664,762.326 832.331,766.826 833.5,771.5C 822.48,771.832 811.48,771.499 800.5,770.5C 798.758,766.275 797.424,761.941 796.5,757.5 Z"/></g>
<g><path style="opacity:1" fill="#000001" d="M 728.5,766.5 C 729.507,766.452 729.84,767.452 729.5,769.5C 748.5,769.5 767.5,769.5 786.5,769.5C 786.042,765.834 785.042,762.334 783.5,759C 765.17,758.5 746.836,758.333 728.5,758.5C 728.795,760.735 728.461,762.735 727.5,764.5C 727.682,762.409 727.348,760.409 726.5,758.5C 745.825,757.334 765.158,757.167 784.5,758C 786.335,762.004 787.668,766.17 788.5,770.5C 768.5,770.5 748.5,770.5 728.5,770.5C 728.5,769.167 728.5,767.833 728.5,766.5 Z"/></g>
<g><path style="opacity:1" fill="#171825" d="M 246.5,778.5 C 269.51,778.167 292.51,778.5 315.5,779.5C 314.436,783.192 313.269,786.859 312,790.5C 288.062,792.484 263.896,793.151 239.5,792.5C 241.287,787.592 243.621,782.925 246.5,778.5 Z"/></g>
<g><path style="opacity:1" fill="#131421" d="M 329.5,778.5 C 341.851,778.168 354.185,778.501 366.5,779.5C 365.395,783.761 364.061,787.927 362.5,792C 350.171,792.5 337.838,792.667 325.5,792.5C 326.635,787.764 327.968,783.097 329.5,778.5 Z"/></g>
<g><path style="opacity:1" fill="#121321" d="M 378.5,778.5 C 390.167,778.5 401.833,778.5 413.5,778.5C 413.071,783.149 412.071,787.649 410.5,792C 398.838,792.5 387.171,792.667 375.5,792.5C 376.094,787.725 377.094,783.059 378.5,778.5 Z"/></g>
<g><path style="opacity:1" fill="#151723" d="M 473.5,778.5 C 484.833,778.5 496.167,778.5 507.5,778.5C 507.803,783.43 507.469,788.263 506.5,793C 494.838,793.5 483.171,793.667 471.5,793.5C 471.294,788.343 471.961,783.343 473.5,778.5 Z"/></g>
<g><path style="opacity:1" fill="#141623" d="M 519.5,778.5 C 530.833,778.5 542.167,778.5 553.5,778.5C 553.587,783.537 553.254,788.537 552.5,793.5C 541.167,793.5 529.833,793.5 518.5,793.5C 518.221,788.405 518.555,783.405 519.5,778.5 Z"/></g>
<g><path style="opacity:1" fill="#131422" d="M 564.5,778.5 C 575.833,778.5 587.167,778.5 598.5,778.5C 598.5,783.5 598.5,788.5 598.5,793.5C 587.495,793.667 576.495,793.5 565.5,793C 564.531,788.263 564.197,783.43 564.5,778.5 Z"/></g>
<g><path style="opacity:1" fill="#161724" d="M 748.5,778.5 C 762.837,778.333 777.171,778.5 791.5,779C 793.34,783.687 794.673,788.52 795.5,793.5C 781.163,793.667 766.829,793.5 752.5,793C 750.251,788.42 748.918,783.586 748.5,778.5 Z"/></g>
<g><path style="opacity:1" fill="#141522" d="M 834.5,777.5 C 835.496,777.414 836.329,777.748 837,778.5C 838.931,782.793 840.764,787.126 842.5,791.5C 831.548,793.964 820.548,794.13 809.5,792C 807.16,787.811 805.827,783.311 805.5,778.5C 815.348,778.827 825.014,778.494 834.5,777.5 Z"/></g>
<g><path style="opacity:1" fill="#171926" d="M 425.5,778.5 C 437.5,778.5 449.5,778.5 461.5,778.5C 460.833,783.5 460.167,788.5 459.5,793.5C 447.495,793.667 435.495,793.5 423.5,793C 422.941,792.275 422.608,791.442 422.5,790.5C 423.508,786.482 424.508,782.482 425.5,778.5 Z"/></g>
<g><path style="opacity:1" fill="#131421" d="M 609.5,778.5 C 620.826,779.033 632.159,779.366 643.5,779.5C 643.5,784.167 643.5,788.833 643.5,793.5C 632.495,793.667 621.495,793.5 610.5,793C 609.531,788.263 609.197,783.43 609.5,778.5 Z"/></g>
<g><path style="opacity:1" fill="#121421" d="M 701.5,778.5 C 713.186,778.168 724.852,778.501 736.5,779.5C 737.817,784.102 738.817,788.769 739.5,793.5C 727.5,793.5 715.5,793.5 703.5,793.5C 702.833,788.5 702.167,783.5 701.5,778.5 Z"/></g>
<g><path style="opacity:1" fill="#121320" d="M 849.5,778.5 C 859.506,778.334 869.506,778.5 879.5,779C 882.179,783.192 884.179,787.692 885.5,792.5C 875.491,792.844 865.491,793.011 855.5,793C 852.541,788.58 850.541,783.747 849.5,778.5 Z"/></g>
<g><path style="opacity:1" fill="#11121f" d="M 901.5,777.5 C 906.511,777.334 911.511,777.501 916.5,778C 918.961,782.421 921.294,786.921 923.5,791.5C 914.853,792.665 906.186,792.832 897.5,792C 894.272,788.044 892.272,783.544 891.5,778.5C 895.042,778.813 898.375,778.479 901.5,777.5 Z"/></g>
<g><path style="opacity:1" fill="#131522" d="M 655.5,778.5 C 667.167,778.5 678.833,778.5 690.5,778.5C 691.275,783.484 691.942,788.484 692.5,793.5C 680.829,793.667 669.162,793.5 657.5,793C 655.728,788.369 655.062,783.536 655.5,778.5 Z"/></g>
<g><path style="opacity:1" fill="#131423" d="M 1017.5,773.5 C 1025.89,781.388 1034.22,789.555 1042.5,798C 1048.17,803 1053.83,808 1059.5,813C 1084.2,830.741 1111.53,836.741 1141.5,831C 1146.5,829.503 1151.17,827.336 1155.5,824.5C 1156.19,840.55 1148.52,850.384 1132.5,854C 1101.78,860.827 1073.45,855.494 1047.5,838C 1027.94,821.049 1017.94,799.549 1017.5,773.5 Z"/></g>
<g><path style="opacity:1" fill="#131421" d="M 298.5,800.5 C 310.558,800.213 322.558,800.879 334.5,802.5C 333.461,806.452 332.127,810.285 330.5,814C 318.505,814.5 306.505,814.667 294.5,814.5C 295.229,809.649 296.562,804.982 298.5,800.5 Z"/></g>
<g><path style="opacity:1" fill="#181926" d="M 400.5,800.5 C 411.833,800.5 423.167,800.5 434.5,800.5C 434.2,805.501 433.2,810.335 431.5,815C 420.172,815.5 408.838,815.667 397.5,815.5C 397.397,810.251 398.397,805.251 400.5,800.5 Z"/></g>
<g><path style="opacity:1" fill="#111220" d="M 584.5,800.5 C 595.505,800.333 606.505,800.5 617.5,801C 619.407,805.518 620.074,810.352 619.5,815.5C 607.833,815.5 596.167,815.5 584.5,815.5C 584.5,810.5 584.5,805.5 584.5,800.5 Z"/></g>
<g><path style="opacity:1" fill="#131421" d="M 632.5,800.5 C 644.167,800.5 655.833,800.5 667.5,800.5C 667.613,805.518 667.947,810.518 668.5,815.5C 656.495,815.667 644.495,815.5 632.5,815C 631.192,810.167 631.192,805.334 632.5,800.5 Z"/></g>
<g><path style="opacity:1" fill="#151623" d="M 725.5,800.5 C 749.502,800.333 773.502,800.5 797.5,801C 799.471,805.219 801.138,809.552 802.5,814C 777.502,814.5 752.502,814.667 727.5,814.5C 727.112,809.781 726.445,805.114 725.5,800.5 Z"/></g>
<g><path style="opacity:1" fill="#11121f" d="M 857.5,801.5 C 868.172,801.333 878.839,801.5 889.5,802C 891.857,805.907 893.524,810.073 894.5,814.5C 883.828,814.667 873.161,814.5 862.5,814C 860.929,809.786 859.263,805.62 857.5,801.5 Z"/></g>
<g><path style="opacity:1" fill="#121321" d="M 346.5,800.5 C 360.515,800.375 374.515,800.709 388.5,801.5C 387.668,805.83 386.335,809.996 384.5,814C 370.504,814.5 356.504,814.667 342.5,814.5C 343.63,809.776 344.964,805.109 346.5,800.5 Z"/></g>
<g><path style="opacity:1" fill="#131422" d="M 446.5,800.5 C 457.833,800.5 469.167,800.5 480.5,800.5C 479.963,805.186 479.296,809.853 478.5,814.5C 467.167,814.5 455.833,814.5 444.5,814.5C 444.843,809.747 445.51,805.081 446.5,800.5 Z"/></g>
<g><path style="opacity:1" fill="#181a28" d="M 492.5,800.5 C 503.505,800.333 514.505,800.5 525.5,801C 525.735,805.708 525.735,810.541 525.5,815.5C 513.833,815.5 502.167,815.5 490.5,815.5C 490.878,810.42 491.545,805.42 492.5,800.5 Z"/></g>
<g><path style="opacity:1" fill="#141522" d="M 537.5,800.5 C 549.18,800.473 560.846,800.806 572.5,801.5C 572.8,806.099 572.467,810.599 571.5,815C 559.838,815.5 548.171,815.667 536.5,815.5C 537.254,810.537 537.587,805.537 537.5,800.5 Z"/></g>
<g><path style="opacity:1" fill="#121422" d="M 679.5,800.5 C 690.838,800.333 702.172,800.5 713.5,801C 715.456,805.61 716.456,810.444 716.5,815.5C 704.5,815.5 692.5,815.5 680.5,815.5C 679.746,810.537 679.413,805.537 679.5,800.5 Z"/></g>
<g><path style="opacity:1" fill="#19191b" d="M 229.5,808.5 C 230.172,805.658 231.506,803.158 233.5,801C 250.833,800.333 268.167,800.333 285.5,801C 285.833,801.333 286.167,801.667 286.5,802C 284.665,806.004 283.332,810.17 282.5,814.5C 263.488,814.833 244.488,814.5 225.5,813.5C 226.612,811.581 227.946,809.914 229.5,808.5 Z"/></g>
<g><path style="opacity:1" fill="#141526" d="M 229.5,808.5 C 231.054,807.086 232.388,805.419 233.5,803.5C 250.5,802.167 267.5,802.167 284.5,803.5C 282.688,806.603 281.688,809.936 281.5,813.5C 263.497,813.667 245.497,813.5 227.5,813C 228.582,811.67 229.249,810.17 229.5,808.5 Z"/></g>
<g><path style="opacity:1" fill="#121320" d="M 820.5,822.5 C 831.505,822.333 842.505,822.5 853.5,823C 855.998,828.327 857.998,833.827 859.5,839.5C 848.162,839.667 836.828,839.5 825.5,839C 823.126,833.713 821.46,828.213 820.5,822.5 Z"/></g>
<g><path style="opacity:1" fill="#121320" d="M 910.5,821.5 C 920.499,821.947 930.499,822.447 940.5,823C 942.962,828.092 945.295,833.259 947.5,838.5C 937.517,839.666 927.517,839.832 917.5,839C 914.675,833.359 912.342,827.526 910.5,821.5 Z"/></g>
<g><path style="opacity:1" fill="#121321" d="M 269.5,823.5 C 284.167,823.5 298.833,823.5 313.5,823.5C 312.334,828.83 310.668,833.997 308.5,839C 294.504,839.5 280.504,839.667 266.5,839.5C 267.182,834.107 268.182,828.773 269.5,823.5 Z"/></g>
<g><path style="opacity:1" fill="#121320" d="M 325.5,822.5 C 339.5,822.5 353.5,822.5 367.5,822.5C 367.056,828.049 365.723,833.383 363.5,838.5C 349.182,839.499 334.849,839.833 320.5,839.5C 321.404,833.54 323.071,827.873 325.5,822.5 Z"/></g>
<g><path style="opacity:1" fill="#141523" d="M 617.5,822.5 C 629.171,822.333 640.838,822.5 652.5,823C 654.308,828.304 654.975,833.804 654.5,839.5C 642.167,839.5 629.833,839.5 617.5,839.5C 617.5,833.833 617.5,828.167 617.5,822.5 Z"/></g>
<g><path style="opacity:1" fill="#121321" d="M 664.5,822.5 C 676.518,822.168 688.518,822.501 700.5,823.5C 701.657,828.76 702.324,834.093 702.5,839.5C 690.495,839.667 678.495,839.5 666.5,839C 665.643,833.564 664.976,828.064 664.5,822.5 Z"/></g>
<g><path style="opacity:1" fill="#131422" d="M 711.5,822.5 C 723.833,822.5 736.167,822.5 748.5,822.5C 749.663,827.805 750.663,833.138 751.5,838.5C 739.167,839.833 726.833,839.833 714.5,838.5C 713.064,833.242 712.064,827.909 711.5,822.5 Z"/></g>
<g><path style="opacity:1" fill="#121321" d="M 760.5,822.5 C 775.17,822.333 789.837,822.5 804.5,823C 807.017,828.232 808.684,833.732 809.5,839.5C 793.833,839.5 778.167,839.5 762.5,839.5C 762.33,834.148 761.33,828.982 759.5,824C 760.056,823.617 760.389,823.117 760.5,822.5 Z"/></g>
<g><path style="opacity:1" fill="#121320" d="M 865.5,822.5 C 876.505,822.333 887.505,822.5 898.5,823C 901.192,827.911 903.192,833.077 904.5,838.5C 893.147,838.832 881.814,838.499 870.5,837.5C 868.229,832.687 866.562,827.687 865.5,822.5 Z"/></g>
<g><path style="opacity:1" fill="#11121f" d="M 220.5,823.5 C 233.184,823.168 245.851,823.501 258.5,824.5C 256.833,829.167 255.167,833.833 253.5,838.5C 239.5,839.833 225.5,839.833 211.5,838.5C 214.26,833.307 217.26,828.307 220.5,823.5 Z"/></g>
<g><path style="opacity:1" fill="#0a0a10" d="M 424.5,822.5 C 410.363,824.058 396.03,824.724 381.5,824.5C 380.5,829.167 379.5,833.833 378.5,838.5C 453.833,838.5 529.167,838.5 604.5,838.5C 604.5,833.833 604.5,829.167 604.5,824.5C 544.832,824.667 485.166,824.5 425.5,824C 446.004,823.832 466.337,823.332 486.5,822.5C 526.5,822.5 566.5,822.5 606.5,822.5C 606.807,828.093 606.473,833.593 605.5,839C 529.167,839.5 452.834,839.667 376.5,839.5C 377.638,833.767 379.305,828.267 381.5,823C 395.829,822.5 410.163,822.333 424.5,822.5 Z"/></g>
<g><path style="opacity:1" fill="#141525" d="M 424.5,822.5 C 445.167,822.5 465.833,822.5 486.5,822.5C 466.337,823.332 446.004,823.832 425.5,824C 485.166,824.5 544.832,824.667 604.5,824.5C 604.5,829.167 604.5,833.833 604.5,838.5C 529.167,838.5 453.833,838.5 378.5,838.5C 379.5,833.833 380.5,829.167 381.5,824.5C 396.03,824.724 410.363,824.058 424.5,822.5 Z"/></g>
<g><path style="opacity:1" fill="#131525" d="M 207.5,874.5 C 205.178,873.198 203.845,871.198 203.5,868.5C 204.489,863.025 204.822,857.358 204.5,851.5C 454.833,851.5 705.167,851.5 955.5,851.5C 955.666,857.509 955.499,863.509 955,869.5C 954.065,872.102 952.232,873.602 949.5,874C 701.946,874.497 454.613,874.663 207.5,874.5 Z"/></g>
<g><path style="opacity:1" fill="#000000" d="M 207.5,874.5 C 454.613,874.663 701.946,874.497 949.5,874C 952.232,873.602 954.065,872.102 955,869.5C 955.499,863.509 955.666,857.509 955.5,851.5C 705.167,851.5 454.833,851.5 204.5,851.5C 204.822,857.358 204.489,863.025 203.5,868.5C 203.5,862.5 203.5,856.5 203.5,850.5C 454.5,850.5 705.5,850.5 956.5,850.5C 956.666,857.175 956.5,863.842 956,870.5C 955.167,872.667 953.667,874.167 951.5,875C 703.46,875.831 455.46,875.665 207.5,874.5 Z"/></g>
</svg>
